<svg xmlns="http://www.w3.org/2000/svg" xmlns:xlink="http://www.w3.org/1999/xlink" xmlns:svgjs="http://svgjs.com/svgjs" id="SvgjsSvg1969" width="288" height="288" version="1.1"><defs id="SvgjsDefs1970"/><g id="SvgjsG1971"><svg xmlns="http://www.w3.org/2000/svg" display="block" preserveAspectRatio="none" viewBox="0 0 2048 2048" width="288" height="288"><defs><linearGradient id="z" x1="1497.16" x2="1492.68" y1="1063.09" y2="1078.45" gradientUnits="userSpaceOnUse"><stop offset="0" stop-color="#223A53" class="svgShape stopColor223a53-2"/><stop offset="1" stop-color="#2F5272" class="svgShape stopColor2f5272-3"/></linearGradient><linearGradient id="y" x1="1165.3" x2="1193.24" y1="786.851" y2="695.336" gradientUnits="userSpaceOnUse"><stop offset="0" stop-color="#193B5B" class="svgShape stopColor193b5b-5"/><stop offset="1" stop-color="#31679A" class="svgShape stopColor31679a-6"/></linearGradient><linearGradient id="x" x1="1529.34" x2="1425.16" y1="999.664" y2="679.473" gradientUnits="userSpaceOnUse"><stop offset="0" stop-color="#144572" class="svgShape stopColor144572-8"/><stop offset="1" stop-color="#396997" class="svgShape stopColor396997-9"/></linearGradient><linearGradient id="w" x1="1295.19" x2="1296.78" y1="986.932" y2="921.213" gradientUnits="userSpaceOnUse"><stop offset="0" stop-color="#626168" class="svgShape stopColor626168-11"/><stop offset="1" stop-color="#AFB7C3" class="svgShape stopColorafb7c3-12"/></linearGradient><linearGradient id="v" x1="1262.66" x2="1287.06" y1="720.555" y2="663.107" gradientUnits="userSpaceOnUse"><stop offset="0" stop-color="#334056" class="svgShape stopColor334056-14"/><stop offset="1" stop-color="#6685AD" class="svgShape stopColor6685ad-15"/></linearGradient><linearGradient id="u" x1="1336.57" x2="1333.54" y1="700.276" y2="663.954" gradientUnits="userSpaceOnUse"><stop offset="0" stop-color="#38628C" class="svgShape stopColor38628c-17"/><stop offset="1" stop-color="#bdd3df" class="svgShape stopColor7ca9d4-18"/></linearGradient><linearGradient id="t" x1="1071.61" x2="1134.15" y1="707.141" y2="718.631" gradientUnits="userSpaceOnUse"><stop offset="0" stop-color="#1D3652" class="svgShape stopColor1d3652-20"/><stop offset="1" stop-color="#305476" class="svgShape stopColor305476-21"/></linearGradient><linearGradient id="s" x1="762.631" x2="752.075" y1="799.164" y2="797.919" gradientUnits="userSpaceOnUse"><stop offset="0" stop-color="#284A6F" class="svgShape stopColor284a6f-23"/><stop offset="1" stop-color="#3D648C" class="svgShape stopColor3d648c-24"/></linearGradient><linearGradient id="r" x1="682.839" x2="674.626" y1="954.555" y2="978.874" gradientUnits="userSpaceOnUse"><stop offset="0" stop-color="#081523" class="svgShape stopColor081523-26"/><stop offset="1" stop-color="#1A334A" class="svgShape stopColor1a334a-27"/></linearGradient><linearGradient id="q" x1="622.598" x2="658.748" y1="856.358" y2="865.236" gradientUnits="userSpaceOnUse"><stop offset="0" stop-color="#24445E" class="svgShape stopColor24445e-29"/><stop offset="1" stop-color="#395D82" class="svgShape stopColor395d82-30"/></linearGradient><linearGradient id="p" x1="802.684" x2="754.021" y1="820.606" y2="777.352" gradientUnits="userSpaceOnUse"><stop offset="0" stop-color="#A2A8BA" class="svgShape stopColora2a8ba-32"/><stop offset="1" stop-color="#BBC7DB" class="svgShape stopColorbbc7db-33"/></linearGradient><linearGradient id="o" x1="1263.63" x2="1309.78" y1="577.082" y2="459.799" gradientUnits="userSpaceOnUse"><stop offset="0" stop-color="#78B3DD" class="svgShape stopColor78b3dd-35"/><stop offset="1" stop-color="#A3DBFD" class="svgShape stopColora3dbfd-36"/></linearGradient><linearGradient id="n" x1="810.012" x2="837.299" y1="839.554" y2="846.491" gradientUnits="userSpaceOnUse"><stop offset="0" stop-color="#000C21" class="svgShape stopColor000c21-38"/><stop offset="1" stop-color="#0F385E" class="svgShape stopColor0f385e-39"/></linearGradient><linearGradient id="m" x1="920.657" x2="1045.8" y1="941.352" y2="745.986" gradientUnits="userSpaceOnUse"><stop offset="0" stop-color="#103F68" class="svgShape stopColor103f68-41"/><stop offset="1" stop-color="#496688" class="svgShape stopColor496688-42"/></linearGradient><linearGradient id="l" x1="1475.8" x2="1467.32" y1="1121.22" y2="1098.11" gradientUnits="userSpaceOnUse"><stop offset="0" stop-color="#1F384F" class="svgShape stopColor1f384f-44"/><stop offset="1" stop-color="#2D5074" class="svgShape stopColor2d5074-45"/></linearGradient><linearGradient id="k" x1="1344.47" x2="1409.83" y1="1396.8" y2="1300.73" gradientUnits="userSpaceOnUse"><stop offset="0" stop-color="#1E3B54" class="svgShape stopColor1e3b54-47"/><stop offset="1" stop-color="#386C9A" class="svgShape stopColor386c9a-48"/></linearGradient><linearGradient id="j" x1="1250.59" x2="1235.68" y1="1370.85" y2="1469.36" gradientUnits="userSpaceOnUse"><stop offset="0" stop-color="#1B334B" class="svgShape stopColor1b334b-50"/><stop offset="1" stop-color="#2E5A86" class="svgShape stopColor2e5a86-51"/></linearGradient><linearGradient id="i" x1="831.114" x2="1099.31" y1="1484.98" y2="396.985" gradientUnits="userSpaceOnUse"><stop offset="0" stop-color="#3C6E9F" class="svgShape stopColor3c6e9f-53"/><stop offset="1" stop-color="#74A8DC" class="svgShape stopColor74a8dc-54"/></linearGradient><linearGradient id="h" x1="1642.56" x2="1681.8" y1="1864.44" y2="1835.05" gradientUnits="userSpaceOnUse"><stop offset="0" stop-color="#3C3C3C" class="svgShape stopColor3c3c3c-56"/><stop offset="1" stop-color="#636261" class="svgShape stopColor636261-57"/></linearGradient><linearGradient id="g" x1="392.949" x2="362.038" y1="1867.97" y2="1830.6" gradientUnits="userSpaceOnUse"><stop offset="0" stop-color="#403F40" class="svgShape stopColor403f40-59"/><stop offset="1" stop-color="#797977" class="svgShape stopColor797977-60"/></linearGradient><linearGradient id="f" x1="312.658" x2="260.592" y1="1873.73" y2="1817.19" gradientUnits="userSpaceOnUse"><stop offset="0" stop-color="#82817F" class="svgShape stopColor82817f-62"/><stop offset="1" stop-color="#D6D5D4" class="svgShape stopColord6d5d4-63"/></linearGradient><linearGradient id="e" x1="1693.31" x2="1742.94" y1="1859.92" y2="1840.98" gradientUnits="userSpaceOnUse"><stop offset="0" stop-color="#626161" class="svgShape stopColor626161-65"/><stop offset="1" stop-color="#979694" class="svgShape stopColor979694-66"/></linearGradient><linearGradient id="d" x1="1746.77" x2="1808.27" y1="1863.78" y2="1820.68" gradientUnits="userSpaceOnUse"><stop offset="0" stop-color="#91908F" class="svgShape stopColor91908f-68"/><stop offset="1" stop-color="#D8D6D5" class="svgShape stopColord8d6d5-69"/></linearGradient><linearGradient id="c" x1="1821.24" x2="1847.41" y1="468.866" y2="241.174" gradientUnits="userSpaceOnUse"><stop offset="0" stop-color="#2C4258" class="svgShape stopColor2c4258-71"/><stop offset="1" stop-color="#56728E" class="svgShape stopColor56728e-72"/></linearGradient><linearGradient id="b" x1="218.622" x2="780.064" y1="206.449" y2="391.078" gradientUnits="userSpaceOnUse"><stop offset="0" stop-color="#2E4254" class="svgShape stopColor2e4254-74"/><stop offset="1" stop-color="#60758B" class="svgShape stopColor60758b-75"/></linearGradient><linearGradient id="a" x1="820.043" x2="1217.41" y1="1946.56" y2="81.158" gradientUnits="userSpaceOnUse"><stop offset="0" stop-color="#01050C" class="svgShape stopColor01050c-77"/><stop offset="1" stop-color="#253A4D" class="svgShape stopColor253a4d-78"/></linearGradient></defs><path fill="#dfe4e9" d="M 0 0 L 2048 0 L 2048 2048 L 0 2048 L 0 0 z" class="svgShape colorf7f8f4-79 selectable"/><path fill="url(#a)" d="M 863.573 132.081 C 907.363 131.133 953.709 131.86 997.629 131.857 L 1274.85 131.994 L 1440.34 132.161 C 1493.47 132.238 1544.38 129.803 1596.81 140.309 C 1655.67 152.105 1710.85 172.694 1759.38 208.69 C 1766.57 214.026 1780.39 223.984 1786.19 230.392 C 1860.31 293.674 1896.76 377.388 1910.85 471.893 C 1914.53 500.41 1913.95 524.681 1913.91 553.407 L 1913.82 640.328 L 1913.85 750.725 C 1913.85 766.527 1914.59 791.407 1913.71 806.71 L 1913.68 1209.49 L 1913.7 1384.78 C 1913.35 1452.89 1916.62 1497.35 1899.84 1563.6 C 1882.4 1629.92 1847.8 1690.49 1799.54 1739.21 C 1777.8 1761.08 1763.88 1771.52 1738.99 1788.96 L 1739.09 1790.85 C 1730.51 1797.06 1721.77 1801.3 1712.55 1806.25 C 1711.44 1806.85 1697.73 1815.43 1697.86 1815.29 C 1702.47 1820.51 1747.38 1828.99 1756.96 1833.07 C 1767.34 1837.49 1797.69 1831.83 1804.66 1834.29 C 1810.56 1831.16 1835.5 1832.21 1840.68 1835.53 C 1835.17 1836.14 1823.88 1835.14 1820.88 1836.51 C 1819.61 1839.74 1822.91 1848.34 1824.14 1852.55 C 1830.73 1852.45 1870.08 1850.05 1872.22 1851.44 C 1868.71 1853 1761.67 1856.94 1749.67 1857.45 C 1746.61 1857.7 1743.34 1858.06 1740.29 1858.06 C 1733.21 1861.31 1688.11 1862.38 1677.71 1862.1 C 1651.79 1861.41 1655.93 1866.11 1633.73 1876.94 C 1601.4 1892.72 1561.45 1895.83 1525.89 1895.46 C 1504.8 1897.06 1484.28 1897.59 1463.23 1898.24 C 1448.6 1900.53 1433.81 1900.55 1419.17 1901.94 C 1395.94 1904.15 1374.28 1898.64 1351.26 1898.51 C 1317.5 1898.32 1286.9 1905.12 1252.87 1900.78 C 1235.84 1898.6 1212.66 1901.2 1195.25 1900.78 C 1159.33 1905.46 1125.03 1902.64 1089.02 1901.66 C 1057.09 1901.42 1025.17 1900.86 993.268 1901.45 C 959.788 1902.28 924.815 1900.56 891.419 1902.79 C 860.2 1904.88 836.893 1901.7 806.29 1900.17 C 784.004 1899.05 759.381 1898.39 736.964 1897.64 C 670.21 1895.86 603.48 1893.29 536.787 1889.92 C 504.431 1888.35 459.624 1890.66 428.323 1879.7 C 425.722 1878.79 416.464 1866.09 413.614 1864.36 C 398.966 1860.34 364.47 1864.25 351.467 1858.88 L 345.413 1858.31 L 336.855 1858.11 C 291.041 1857.6 234.082 1853.88 188.497 1850.87 L 188.002 1850.22 C 197.64 1847.72 219.907 1854.48 230.663 1850.9 C 235.028 1849.45 238.477 1842.46 236.72 1838.32 C 233.924 1838.63 231.701 1838.82 228.891 1838.97 L 227.777 1837.81 L 228.534 1836.73 C 234.977 1835.61 245.506 1833.04 251.632 1835.41 C 269.313 1833.17 290.453 1834.87 308.236 1832.01 C 319.679 1830.17 331.207 1823.05 343.685 1823.16 C 343.382 1823.16 352.981 1818.88 353.92 1818.51 L 354.434 1817.2 C 350.792 1813.4 319.503 1799.18 308.903 1790.87 L 308.987 1788.98 C 285.075 1771.57 270.439 1761.11 249.1 1739.53 C 200.164 1690 165.347 1628.3 148.251 1560.8 C 132.809 1499.8 135.157 1457.12 135.15 1395.05 L 135.154 1269.3 L 135.149 926.173 C 134.343 912.142 134.978 891.361 134.983 876.936 L 135.021 781.641 L 135.107 519.593 C 135.913 414.84 175.876 315.456 249.984 242.461 C 337.577 155.757 448.729 129.774 568.096 131.935 C 666.222 133.712 765.437 130.867 863.573 132.081 z" class="svgShape colorgradient-80 selectable"/><path fill="#CAC9C9" d="M 1685.25 1859.75 C 1703.37 1859.91 1722.02 1857.62 1740.29 1858.06 C 1733.21 1861.31 1688.11 1862.38 1677.71 1862.1 C 1651.79 1861.41 1655.93 1866.11 1633.73 1876.94 C 1601.4 1892.72 1561.45 1895.83 1525.89 1895.46 C 1504.8 1897.06 1484.28 1897.59 1463.23 1898.24 C 1448.6 1900.53 1433.81 1900.55 1419.17 1901.94 C 1395.94 1904.15 1374.28 1898.64 1351.26 1898.51 C 1317.5 1898.32 1286.9 1905.12 1252.87 1900.78 C 1235.84 1898.6 1212.66 1901.2 1195.25 1900.78 C 1159.33 1905.46 1125.03 1902.64 1089.02 1901.66 C 1057.09 1901.42 1025.17 1900.86 993.268 1901.45 C 959.788 1902.28 924.815 1900.56 891.419 1902.79 C 860.2 1904.88 836.893 1901.7 806.29 1900.17 C 784.004 1899.05 759.381 1898.39 736.964 1897.64 C 670.21 1895.86 603.48 1893.29 536.787 1889.92 C 504.431 1888.35 459.624 1890.66 428.323 1879.7 C 425.722 1878.79 416.464 1866.09 413.614 1864.36 C 398.966 1860.34 364.47 1864.25 351.467 1858.88 C 393.571 1859.05 435.659 1863.3 478.283 1862.86 C 552.521 1864.14 629.583 1862.99 704.084 1863.04 L 1196.38 1863.21 L 1444.97 1863.09 L 1522.85 1863.34 C 1531.75 1863.37 1553.74 1863.95 1561.55 1863.05 C 1595.08 1864.02 1651.28 1861.66 1685.25 1859.75 z" class="svgShape colorcac9c9-81 selectable"/><path fill="#58718C" d="M 863.573 132.081 C 907.363 131.133 953.709 131.86 997.629 131.857 L 1274.85 131.994 L 1440.34 132.161 C 1493.47 132.238 1544.38 129.803 1596.81 140.309 C 1655.67 152.105 1710.85 172.694 1759.38 208.69 C 1766.57 214.026 1780.39 223.984 1786.19 230.392 L 1786.79 233.873 C 1777.12 237.773 1767.02 232.262 1756.61 232.435 C 1698.56 185.936 1626.52 162.252 1553.33 153.971 C 1518.75 150.058 1480.47 151.868 1445.54 151.811 L 1319.84 151.745 L 1037.58 150.998 C 981.035 150.939 914.092 152.737 858.56 150.755 L 860.061 149.327 C 859.045 147.676 851.133 146.555 848.157 143.988 C 844.891 141.171 846.895 140.035 843.998 138.646 C 842.67 141.428 842.139 143.567 839.476 144.872 C 827.191 140.029 824.5 148.444 816.573 143.79 C 810.542 143.863 817.608 144.529 812.725 148.45 L 810.748 147.916 C 805.343 138.673 806.629 142.393 797.679 137.934 C 795.032 136.614 794.501 136.58 793.879 134.433 C 801.586 130.916 849.323 135.763 863.573 132.081 z" class="svgShape color58718c-82 selectable"/><path fill="url(#b)" d="M 135.149 926.173 C 134.343 912.142 134.978 891.361 134.983 876.936 L 135.021 781.641 L 135.107 519.593 C 135.913 414.84 175.876 315.456 249.984 242.461 C 337.577 155.757 448.729 129.774 568.096 131.935 C 666.222 133.712 765.437 130.867 863.573 132.081 C 849.323 135.763 801.586 130.916 793.879 134.433 C 794.501 136.58 795.032 136.614 797.679 137.934 C 806.629 142.393 805.343 138.673 810.748 147.916 L 812.725 148.45 C 817.608 144.529 810.542 143.863 816.573 143.79 C 824.5 148.444 827.191 140.029 839.476 144.872 C 842.139 143.567 842.67 141.428 843.998 138.646 C 846.895 140.035 844.891 141.171 848.157 143.988 C 851.133 146.555 859.045 147.676 860.061 149.327 L 858.56 150.755 C 832.223 151.934 800.744 151.001 774.013 151.044 C 721.251 151.381 668.488 151.447 615.725 151.243 C 578.673 151.212 534.636 149.989 498.345 153.323 C 401.394 162.227 311.69 201.356 246.467 275.08 C 189.141 339.878 158.006 427.059 154.938 513.315 C 154.179 534.643 154.926 556.141 154.573 577.453 C 154.457 584.463 155.023 598.825 154.262 604.636 C 153.821 599.254 153.934 593.388 153.974 587.947 C 154.228 554.071 153.026 520.169 155.439 486.352 C 156.269 474.723 160.461 462.388 160.597 451.045 L 159.139 450.402 C 154.97 452.274 150.822 454.193 146.696 456.16 C 145.173 454.166 145.162 453.355 143.464 452.79 C 134.636 465.474 137.544 594.506 137.492 619.493 L 136.316 834.069 L 136.071 893.662 C 135.981 902.382 136.159 918.082 135.149 926.173 z" class="svgShape colorgradient-83 selectable"/><path fill="url(#c)" d="M 1786.19 230.392 C 1860.31 293.674 1896.76 377.388 1910.85 471.893 L 1909.62 473.885 L 1908.79 474.938 L 1907.64 474.294 C 1901.7 475.531 1899.36 475.503 1893.66 477.806 C 1893.27 478.355 1892.89 478.903 1892.5 479.452 C 1893.62 496.826 1894.26 518.699 1894.21 535.643 C 1894.18 545.049 1893.74 547.703 1893.17 553.692 C 1890.59 543.513 1892.67 493.434 1890.83 477.638 C 1879.03 376.552 1835.54 296.423 1756.61 232.435 C 1767.02 232.262 1777.12 237.773 1786.79 233.873 L 1786.19 230.392 z" class="svgShape colorgradient-84 selectable"/><path fill="url(#d)" d="M 1738.99 1788.96 L 1739.09 1790.85 C 1730.51 1797.06 1721.77 1801.3 1712.55 1806.25 C 1711.44 1806.85 1697.73 1815.43 1697.86 1815.29 C 1702.47 1820.51 1747.38 1828.99 1756.96 1833.07 C 1767.34 1837.49 1797.69 1831.83 1804.66 1834.29 C 1810.56 1831.16 1835.5 1832.21 1840.68 1835.53 C 1835.17 1836.14 1823.88 1835.14 1820.88 1836.51 C 1819.61 1839.74 1822.91 1848.34 1824.14 1852.55 C 1830.73 1852.45 1870.08 1850.05 1872.22 1851.44 C 1868.71 1853 1761.67 1856.94 1749.67 1857.45 C 1746.61 1857.7 1743.34 1858.06 1740.29 1858.06 C 1722.02 1857.62 1703.37 1859.91 1685.25 1859.75 L 1685.63 1857.99 C 1690.22 1857.53 1691.59 1857.77 1694.53 1854.56 L 1694.37 1852.18 C 1691.51 1847.92 1690.25 1847.66 1685.58 1845.07 C 1675.43 1843.91 1668.55 1843.02 1658.36 1844.51 C 1649.63 1843.94 1644.69 1844.94 1641.64 1834.32 C 1647.5 1832.29 1653.09 1830.35 1659.03 1828.58 C 1693.11 1816.51 1708.56 1806.2 1738.99 1788.96 z" class="svgShape colorgradient-85 selectable"/><path fill="#CAC9C9" d="M 1738.99 1788.96 L 1739.09 1790.85 C 1730.51 1797.06 1721.77 1801.3 1712.55 1806.25 C 1711.44 1806.85 1697.73 1815.43 1697.86 1815.29 C 1702.47 1820.51 1747.38 1828.99 1756.96 1833.07 C 1767.34 1837.49 1797.69 1831.83 1804.66 1834.29 C 1799.89 1839.26 1757.73 1835.96 1749.52 1835.45 C 1732.91 1834.4 1671.03 1835.98 1659.03 1828.58 C 1693.11 1816.51 1708.56 1806.2 1738.99 1788.96 z" class="svgShape colorcac9c9-86 selectable"/><path fill="url(#e)" d="M 1685.58 1845.07 C 1703.46 1844.87 1721.89 1843.57 1739.73 1843.88 C 1747.11 1844.01 1748.12 1856.22 1749.67 1857.45 C 1746.61 1857.7 1743.34 1858.06 1740.29 1858.06 C 1722.02 1857.62 1703.37 1859.91 1685.25 1859.75 L 1685.63 1857.99 C 1690.22 1857.53 1691.59 1857.77 1694.53 1854.56 L 1694.37 1852.18 C 1691.51 1847.92 1690.25 1847.66 1685.58 1845.07 z" class="svgShape colorgradient-87 selectable"/><path fill="url(#f)" d="M 308.987 1788.98 C 316.594 1793.06 323.161 1797.97 330.514 1801.93 C 350.023 1812.44 370.93 1822.41 391.946 1829.53 C 401.497 1832.18 410.661 1835.63 420.127 1838.41 C 417.502 1842.36 416.749 1843.1 412.052 1844.65 L 408.231 1843.88 C 406.935 1845 405.416 1846.67 403.519 1846.54 C 394.935 1845.99 386.365 1845.17 377.776 1844.69 C 368.585 1844.04 359.455 1845.17 350.565 1845.1 L 347.517 1846.21 C 343.462 1847.59 342.5 1848.32 339.153 1851.1 L 338.343 1853.03 C 340.128 1857.37 340.94 1856.86 345.413 1858.31 L 336.855 1858.11 C 291.041 1857.6 234.082 1853.88 188.497 1850.87 L 188.002 1850.22 C 197.64 1847.72 219.907 1854.48 230.663 1850.9 C 235.028 1849.45 238.477 1842.46 236.72 1838.32 C 233.924 1838.63 231.701 1838.82 228.891 1838.97 L 227.777 1837.81 L 228.534 1836.73 C 234.977 1835.61 245.506 1833.04 251.632 1835.41 C 269.313 1833.17 290.453 1834.87 308.236 1832.01 C 319.679 1830.17 331.207 1823.05 343.685 1823.16 C 343.382 1823.16 352.981 1818.88 353.92 1818.51 L 354.434 1817.2 C 350.792 1813.4 319.503 1799.18 308.903 1790.87 L 308.987 1788.98 z" class="svgShape colorgradient-88 selectable"/><path fill="#CAC9C9" d="M 308.987 1788.98 C 316.594 1793.06 323.161 1797.97 330.514 1801.93 C 350.023 1812.44 370.93 1822.41 391.946 1829.53 C 386.996 1832.59 259.127 1837.78 251.632 1835.41 C 269.313 1833.17 290.453 1834.87 308.236 1832.01 C 319.679 1830.17 331.207 1823.05 343.685 1823.16 C 343.382 1823.16 352.981 1818.88 353.92 1818.51 L 354.434 1817.2 C 350.792 1813.4 319.503 1799.18 308.903 1790.87 L 308.987 1788.98 z" class="svgShape colorcac9c9-89 selectable"/><path fill="#7C7C7B" d="M 336.855 1858.11 L 334.67 1855.85 C 332.755 1847.84 346.378 1842.35 350.565 1845.1 L 347.517 1846.21 C 343.462 1847.59 342.5 1848.32 339.153 1851.1 L 338.343 1853.03 C 340.128 1857.37 340.94 1856.86 345.413 1858.31 L 336.855 1858.11 z" class="svgShape color7c7c7b-90 selectable"/><path fill="url(#g)" d="M 420.127 1838.41 C 424.173 1839.49 434.577 1841.92 437.55 1843.83 L 436.277 1845.21 C 423.628 1849.25 420.431 1844.77 406.638 1854.89 L 405.752 1856.91 C 412.343 1863.57 471.685 1857.79 478.633 1861.37 L 478.283 1862.86 C 435.659 1863.3 393.571 1859.05 351.467 1858.88 L 345.413 1858.31 C 340.94 1856.86 340.128 1857.37 338.343 1853.03 L 339.153 1851.1 C 342.5 1848.32 343.462 1847.59 347.517 1846.21 L 350.565 1845.1 C 359.455 1845.17 368.585 1844.04 377.776 1844.69 C 386.365 1845.17 394.935 1845.99 403.519 1846.54 C 405.416 1846.67 406.935 1845 408.231 1843.88 L 412.052 1844.65 C 416.749 1843.1 417.502 1842.36 420.127 1838.41 z" class="svgShape colorgradient-91 selectable"/><path fill="#58575A" d="M 420.127 1838.41 C 424.173 1839.49 434.577 1841.92 437.55 1843.83 L 436.277 1845.21 C 425.242 1841.92 421.221 1846.9 412.052 1844.65 C 416.749 1843.1 417.502 1842.36 420.127 1838.41 z" class="svgShape color58575a-92 selectable"/><path fill="url(#h)" d="M 1658.36 1844.51 C 1668.55 1843.02 1675.43 1843.91 1685.58 1845.07 C 1690.25 1847.66 1691.51 1847.92 1694.37 1852.18 L 1694.53 1854.56 C 1691.59 1857.77 1690.22 1857.53 1685.63 1857.99 L 1685.25 1859.75 C 1651.28 1861.66 1595.08 1864.02 1561.55 1863.05 C 1574.4 1857.94 1639.94 1862.2 1645.89 1858.23 C 1648.35 1850.4 1632.24 1847.07 1626.36 1845.12 C 1636.13 1844.26 1648.02 1847.09 1658.36 1844.51 z" class="svgShape colorgradient-93 selectable"/><path fill="#314359" d="M 1909.62 473.885 L 1910.85 471.893 C 1914.53 500.41 1913.95 524.681 1913.91 553.407 L 1913.82 640.328 L 1913.85 750.725 C 1913.85 766.527 1914.59 791.407 1913.71 806.71 C 1909.63 802.153 1914.52 533.086 1910.9 498.019 L 1910.43 499.974 C 1909.67 490.891 1910.23 482.987 1909.62 473.885 z" class="svgShape color314359-94 selectable"/><path fill="#58575A" d="M 1626.36 1845.12 C 1624.25 1845.41 1620.61 1846.08 1618.92 1844.97 C 1613.42 1841.34 1609.36 1846.68 1603.35 1845.67 C 1607.91 1843.2 1634.62 1836.45 1641.64 1834.32 C 1644.69 1844.94 1649.63 1843.94 1658.36 1844.51 C 1648.02 1847.09 1636.13 1844.26 1626.36 1845.12 z" class="svgShape color58575a-95 selectable"/><path fill="url(#i)" d="M 910.684 410.427 C 968.716 387.95 1052.36 381.723 1113.05 392.504 C 1122.76 394.229 1135.54 395.908 1144.83 398.696 C 1246.26 420.855 1334.77 482.338 1390.94 569.66 C 1403.26 588.839 1419.2 617.917 1425.22 639.794 L 1424.82 641.238 C 1419.57 642.687 1416.11 643.897 1410.62 644.182 C 1392.9 644.153 1331.31 641.244 1318.86 644.103 L 1315.79 642.295 C 1299.37 635.883 1280.22 650.456 1264.47 652.976 C 1262.76 653.25 1260.58 653.773 1258.77 654.108 C 1257.35 654.974 1249.32 659.724 1248.51 660.404 C 1242.12 664.312 1234.54 667.7 1229.06 671.154 L 1228.37 672.515 C 1231.82 673.338 1233.12 673.208 1236.59 673.201 L 1235.69 673.388 C 1230.44 674.445 1226.27 673.842 1222.18 675.8 C 1220.46 678.966 1220.86 677.204 1221.82 681.423 L 1206.86 682.616 C 1202.26 683.49 1196.52 684.411 1192.1 685.645 C 1146.98 695.383 1116.11 729.17 1111.78 775.348 C 1111.38 778.016 1110.99 780.458 1110.72 783.151 C 1108.67 785.01 1109.54 784.525 1106.87 785.371 L 1107.7 787.445 C 1114.97 788.764 1122.18 787.58 1128.04 788.857 L 1135.04 790.288 C 1139.51 793.622 1141.2 795.345 1141.95 800.946 L 1142.81 803.134 C 1143.15 800.733 1143.79 798.567 1144.4 796.226 C 1146.81 807.559 1148.24 877.787 1143.56 885.545 C 1140.17 891.173 1134.67 893.344 1130.03 897.487 C 1126.08 901.003 1118.95 915.679 1118.5 921.018 C 1121.55 926.827 1128.87 941.408 1133.46 945.737 C 1147.52 958.979 1175.1 970.945 1193.2 978.041 C 1198.47 980.107 1218.11 981.702 1221.16 983.19 C 1230.63 987.82 1239.69 997.182 1250.23 1001.46 C 1257.68 1004.49 1281.7 1005.98 1285.43 1008.24 C 1282 1010.12 1255.09 1007.65 1251.72 1005.61 C 1228.56 992.037 1217.63 984.763 1190.73 979.821 C 1177.33 977.359 1146.18 960.393 1135.28 951.786 C 1127.51 945.655 1104.61 905.95 1113.69 897.034 C 1115.78 896.758 1118.46 896.879 1120.41 897.579 C 1126.67 899.829 1130.15 894.598 1136.67 891.892 C 1134.18 889.801 1132.89 889.957 1129.34 890.23 C 1066.61 895.058 1002.64 890.396 939.699 892.034 C 914.63 892.687 890.407 893.85 865.313 893.124 C 855.821 892.773 839.412 894.083 830.462 892.388 L 825.898 892.837 L 838.196 895.689 L 837.617 896.403 C 833.246 896.529 831.508 895.888 828.084 897.921 C 844.026 912.389 845.265 912.213 865.227 915.118 C 880.979 917.411 898.144 923.803 914.719 923.582 C 918.112 923.694 926.549 920.985 931.834 920.627 C 930.591 921.673 929.621 922.436 928.309 923.394 C 932.703 930.406 1025.21 928.028 1037.63 933.004 C 1049.91 937.925 1060.05 953.46 1066.77 963.658 C 1092.31 1002.45 1126.55 1016.84 1165.94 1037.02 C 1179.05 1043.75 1198.08 1078.94 1213.59 1086.89 C 1264.22 1116.69 1330.12 1116.95 1383.8 1095.26 C 1388.39 1093.42 1396.97 1093.32 1401.18 1091.57 C 1413.19 1086.56 1426.15 1085.69 1438.38 1081.99 C 1455.22 1076.89 1470.67 1077.11 1486.86 1070.49 C 1488.83 1075.45 1489.98 1079.13 1493.1 1083.5 C 1496.75 1086.16 1494.37 1088.64 1497.93 1090.9 L 1499.14 1089.25 C 1502.43 1086.83 1502.49 1086.03 1504.27 1082.16 C 1506.48 1089 1505.84 1093.26 1505.15 1100.42 C 1485.52 1131.86 1454.51 1115.55 1440.86 1139.03 C 1439.34 1143.86 1439.62 1150.68 1439.93 1155.77 C 1443.32 1162.09 1445.8 1167.59 1448.71 1174.16 L 1449.38 1176.14 L 1450.72 1181.14 C 1450.76 1188.37 1449.36 1191.34 1446.07 1197.81 C 1434.57 1211.61 1417.17 1209.05 1400.8 1209.72 L 1394.73 1212.59 C 1408.73 1221.09 1426.71 1205.91 1439.84 1228.24 C 1440.82 1235.75 1440.95 1238.25 1438.84 1245.49 C 1427.37 1266.42 1411.69 1256.88 1403.83 1288.41 L 1404.04 1300.92 C 1406.71 1312.03 1408.44 1319.79 1407.16 1331.15 C 1403.07 1367.3 1371.8 1390.66 1336.54 1391.17 C 1331.34 1391.25 1326.64 1391.15 1321.43 1390.84 L 1320.05 1390.84 C 1273.78 1390.39 1226.55 1356.99 1184.32 1395.75 C 1170.06 1408.84 1166.05 1427.88 1162.43 1446.15 C 1157.69 1482.97 1149.42 1523.39 1143.27 1560.21 C 1141.11 1573.13 1135.96 1605.36 1132.78 1617.37 C 1130.07 1621.15 1131.74 1620.01 1128.12 1621.72 C 1118.81 1620.25 1103.72 1614.13 1094.21 1610.63 L 1048.41 1593.93 L 933.919 1551.69 C 913.956 1544.32 891.974 1536.89 872.388 1529.01 C 831.186 1515.25 790.334 1498.51 749.381 1483.9 C 738.675 1480.08 724.573 1475.46 714.752 1470.54 C 709.936 1470.33 669.599 1455.39 666.825 1451.6 C 665.64 1448.15 666.158 1447.41 667.183 1443.92 C 683.191 1405.11 698.786 1369.46 713.547 1329.84 C 729.404 1288.4 747.381 1224.01 748.373 1179.72 C 748.524 1131.04 741.489 1116.53 722.485 1072.18 C 715.854 1061.21 706.136 1041.66 699.711 1029.74 C 695.854 1023.35 692.27 1016.8 688.969 1010.1 C 687.108 1006.58 681.085 996.284 680.551 993.263 C 674.554 982.832 671.794 971.659 665.498 961.611 C 663.315 958.129 661.83 958.643 657.983 957.991 C 655.037 958.027 654.233 958.314 651.59 957.046 L 650.843 954.592 C 651.418 943.93 651.026 930.958 650.977 920.13 C 637.593 917.703 632.078 824.278 631.876 810.267 C 631.744 787.96 632.473 767.646 635.566 745.529 C 636.327 740.879 637.125 736.235 637.961 731.597 C 639.186 720.331 646.548 693.926 650.187 683.195 C 659.695 643.831 699.185 571.797 725.829 541.245 C 729.244 535.789 743.627 520.311 748.327 515.195 C 789.251 470.645 852.774 428.877 910.684 410.427 z" class="svgShape colorgradient-96 selectable"/><path fill="#3C6A94" d="M 817.844 890.796 L 818.989 890.654 C 821.941 895.775 824.336 894.964 828.084 897.921 C 844.026 912.389 845.265 912.213 865.227 915.118 C 880.979 917.411 898.144 923.803 914.719 923.582 C 918.112 923.694 926.549 920.985 931.834 920.627 C 930.591 921.673 929.621 922.436 928.309 923.394 C 932.703 930.406 1025.21 928.028 1037.63 933.004 C 1049.91 937.925 1060.05 953.46 1066.77 963.658 C 1092.31 1002.45 1126.55 1016.84 1165.94 1037.02 C 1179.05 1043.75 1198.08 1078.94 1213.59 1086.89 C 1264.22 1116.69 1330.12 1116.95 1383.8 1095.26 C 1388.39 1093.42 1396.97 1093.32 1401.18 1091.57 C 1413.19 1086.56 1426.15 1085.69 1438.38 1081.99 C 1455.22 1076.89 1470.67 1077.11 1486.86 1070.49 C 1488.83 1075.45 1489.98 1079.13 1493.1 1083.5 C 1496.75 1086.16 1494.37 1088.64 1497.93 1090.9 L 1499.14 1089.25 C 1502.43 1086.83 1502.49 1086.03 1504.27 1082.16 C 1506.48 1089 1505.84 1093.26 1505.15 1100.42 C 1485.52 1131.86 1454.51 1115.55 1440.86 1139.03 C 1439.34 1143.86 1439.62 1150.68 1439.93 1155.77 C 1443.32 1162.09 1445.8 1167.59 1448.71 1174.16 L 1449.38 1176.14 L 1450.72 1181.14 C 1450.76 1188.37 1449.36 1191.34 1446.07 1197.81 C 1434.57 1211.61 1417.17 1209.05 1400.8 1209.72 L 1394.73 1212.59 C 1408.73 1221.09 1426.71 1205.91 1439.84 1228.24 C 1440.82 1235.75 1440.95 1238.25 1438.84 1245.49 C 1427.37 1266.42 1411.69 1256.88 1403.83 1288.41 L 1404.04 1300.92 C 1406.71 1312.03 1408.44 1319.79 1407.16 1331.15 C 1403.07 1367.3 1371.8 1390.66 1336.54 1391.17 C 1331.34 1391.25 1326.64 1391.15 1321.43 1390.84 L 1320.05 1390.84 C 1273.78 1390.39 1226.55 1356.99 1184.32 1395.75 C 1170.06 1408.84 1166.05 1427.88 1162.43 1446.15 C 1157.69 1482.97 1149.42 1523.39 1143.27 1560.21 C 1141.11 1573.13 1135.96 1605.36 1132.78 1617.37 C 1130.07 1621.15 1131.74 1620.01 1128.12 1621.72 C 1118.81 1620.25 1103.72 1614.13 1094.21 1610.63 L 1048.41 1593.93 L 933.919 1551.69 C 913.956 1544.32 891.974 1536.89 872.388 1529.01 C 831.186 1515.25 790.334 1498.51 749.381 1483.9 C 738.675 1480.08 724.573 1475.46 714.752 1470.54 C 709.936 1470.33 669.599 1455.39 666.825 1451.6 C 665.64 1448.15 666.158 1447.41 667.183 1443.92 C 683.191 1405.11 698.786 1369.46 713.547 1329.84 C 729.404 1288.4 747.381 1224.01 748.373 1179.72 C 750.717 1177.04 748.934 1136.54 751.023 1127.77 C 762.273 1172.67 743.594 1253.29 729.3 1296.36 C 727.634 1301.38 720.554 1323.64 718.765 1326.83 C 709.864 1355.26 697.014 1383.08 685.769 1410.66 C 681.333 1421.54 674.4 1436.78 671.146 1447.59 C 672.512 1447.92 675.245 1448.86 676.259 1447.45 C 688.289 1430.65 693.726 1408.03 702.266 1389.11 C 702.771 1387.99 709.894 1371.31 708.757 1372.63 C 712.229 1368.59 716.791 1352.36 718.848 1349.54 C 725.454 1340.47 741.446 1280.69 745.678 1278.71 C 747.8 1280.76 748.393 1281.71 751.143 1282.71 L 752.517 1281.71 L 751.38 1277.58 C 753.301 1276.84 753.495 1276.94 755.549 1276.88 C 757.783 1274.15 758.028 1274.14 759.203 1270.69 C 756.035 1265.19 755.183 1257.42 756.318 1251.26 L 757.666 1250.35 C 767.805 1253.5 762.061 1265.84 761.445 1273.21 C 761.164 1276.58 763.178 1277.72 765.264 1279.94 C 775.477 1280.02 774.011 1281 783.094 1282.29 C 794.548 1283.93 804.591 1282.08 816.692 1285.33 C 840.81 1291.8 862.174 1309.73 887.554 1309.37 C 896.205 1308.93 918.765 1293.58 923.632 1286.05 C 932.193 1272.82 926.184 1266.41 923.474 1252.73 C 922.084 1250.03 926.249 1239.76 929.228 1238.92 C 942.593 1236.22 966.526 1226.44 978.567 1223.61 C 1013.46 1215.4 1027.64 1217.29 1015.84 1176.29 C 1011.26 1160.38 1044.24 1154.62 1053.14 1147.71 C 1067.14 1136.87 1067.8 1120.91 1067.3 1104.35 C 1067.42 1097.71 1071.23 1079.57 1073.97 1073.69 C 1092.17 1034.73 1074.5 1004.16 1038.16 986.422 C 1029.05 981.973 1015.92 982.505 1005.77 980.059 C 972.73 972.093 938.526 967.544 905.468 959.805 C 884.386 952.717 864.692 938.551 845.229 927.736 C 835.511 922.337 819.181 901.889 817.844 890.796 z" class="svgShape color3c6a94-97 selectable"/><path fill="#314359" d="M 839.719 1509.75 C 900.731 1531.29 961.501 1553.5 1022.02 1576.4 C 1046.64 1585.46 1071.53 1594.03 1095.93 1603.65 C 1103.61 1606.68 1115.19 1610.31 1122.33 1613.65 C 1126.93 1616.23 1127.58 1616.52 1132.78 1617.37 C 1130.07 1621.15 1131.74 1620.01 1128.12 1621.72 C 1118.81 1620.25 1103.72 1614.13 1094.21 1610.63 L 1048.41 1593.93 L 933.919 1551.69 C 913.956 1544.32 891.974 1536.89 872.388 1529.01 C 865.204 1522.01 845.482 1518.58 839.719 1509.75 z" class="svgShape color314359-98 selectable"/><path fill="url(#j)" d="M 1220.74 1371.92 C 1224.45 1371.79 1242.67 1370.87 1245.35 1371.49 C 1261.43 1375.18 1288.51 1382.76 1305.09 1381.02 C 1308.37 1381.28 1311.32 1381.45 1314.58 1382.03 C 1323.16 1387.04 1327.14 1381.03 1332.67 1388.61 C 1330.33 1390.31 1325.11 1390.29 1321.43 1390.84 L 1320.05 1390.84 C 1273.78 1390.39 1226.55 1356.99 1184.32 1395.75 C 1170.06 1408.84 1166.05 1427.88 1162.43 1446.15 L 1160.52 1446.83 L 1160 1448.08 C 1152.04 1452.6 1152.15 1481.29 1147.79 1491.54 C 1146.84 1483.69 1156.82 1433.82 1158.74 1425.07 C 1169.6 1410.6 1169.45 1389.89 1194.66 1379.15 C 1203.51 1377.91 1207.29 1372.66 1220.74 1371.92 z" class="svgShape colorgradient-99 selectable"/><path fill="#2F5379" d="M 1147.79 1491.54 C 1152.15 1481.29 1152.04 1452.6 1160 1448.08 L 1160.52 1446.83 L 1162.43 1446.15 C 1157.69 1482.97 1149.42 1523.39 1143.27 1560.21 C 1141.11 1573.13 1135.96 1605.36 1132.78 1617.37 C 1127.58 1616.52 1126.93 1616.23 1122.33 1613.65 L 1124.82 1612.44 C 1129.58 1605.01 1145.87 1506.72 1147.79 1491.54 z" class="svgShape color2f5379-100 selectable"/><path fill="url(#k)" d="M 1397.29 1291.29 C 1400.7 1295.13 1401.38 1296.4 1404.04 1300.92 C 1406.71 1312.03 1408.44 1319.79 1407.16 1331.15 C 1403.07 1367.3 1371.8 1390.66 1336.54 1391.17 C 1331.34 1391.25 1326.64 1391.15 1321.43 1390.84 C 1325.11 1390.29 1330.33 1390.31 1332.67 1388.61 C 1327.14 1381.03 1323.16 1387.04 1314.58 1382.03 C 1348.73 1384.41 1378.86 1380.72 1395.18 1346 C 1406 1322.99 1401.48 1315.91 1394.01 1293.74 L 1397.29 1291.29 z" class="svgShape colorgradient-101 selectable"/><path fill="url(#l)" d="M 1493.1 1083.5 C 1496.75 1086.16 1494.37 1088.64 1497.93 1090.9 L 1499.14 1089.25 C 1502.43 1086.83 1502.49 1086.03 1504.27 1082.16 C 1506.48 1089 1505.84 1093.26 1505.15 1100.42 C 1485.52 1131.86 1454.51 1115.55 1440.86 1139.03 C 1438.17 1129.5 1439.61 1127.16 1445.04 1118.66 C 1450.53 1115.27 1464.07 1113.01 1471 1111.6 C 1478.34 1108.32 1483.78 1107.22 1491.74 1103.05 C 1499.93 1092.24 1495.95 1095.55 1493.33 1084.51 L 1493.1 1083.5 z" class="svgShape colorgradient-102 selectable"/><path fill="#26496A" d="M 1471 1111.6 C 1478.34 1108.32 1483.78 1107.22 1491.74 1103.05 C 1491.53 1111.37 1476.87 1115.84 1471 1111.6 z" class="svgShape color26496a-103 selectable"/><path fill="#14324F" d="M 714.752 1470.54 C 723.285 1469.88 730.67 1474.46 740.23 1475.28 L 741.985 1475.83 C 755.807 1480.25 760.755 1486.73 774.236 1488.25 C 776.187 1486.57 775.214 1487.25 777.142 1486.15 C 797.814 1494.13 819.309 1501.5 839.719 1509.75 C 845.482 1518.58 865.204 1522.01 872.388 1529.01 C 831.186 1515.25 790.334 1498.51 749.381 1483.9 C 738.675 1480.08 724.573 1475.46 714.752 1470.54 z" class="svgShape color14324f-104 selectable"/><path fill="#2F5379" d="M 1439.84 1228.24 C 1440.82 1235.75 1440.95 1238.25 1438.84 1245.49 C 1427.37 1266.42 1411.69 1256.88 1403.83 1288.41 L 1404.04 1300.92 C 1401.38 1296.4 1400.7 1295.13 1397.29 1291.29 L 1396 1291.16 C 1394.22 1288.26 1394.99 1283.79 1395.17 1280.22 C 1396.48 1254.8 1435.6 1247.95 1439.84 1228.24 z" class="svgShape color2f5379-105 selectable"/><path fill="#314359" d="M1438.84 1245.49C1427.37 1266.42 1411.69 1256.88 1403.83 1288.41 1394.81 1271.3 1423.57 1249.28 1438.84 1245.49zM714.752 1470.54C709.936 1470.33 669.599 1455.39 666.825 1451.6 665.64 1448.15 666.158 1447.41 667.183 1443.92 668.576 1447.21 668.536 1447 671.052 1449.58 675.311 1451.15 673.78 1449.99 676.001 1450.58 691.889 1454.76 717.697 1463.95 732.63 1469.94 746.643 1474.4 763.429 1480.6 777.142 1486.15 775.214 1487.25 776.187 1486.57 774.236 1488.25 760.755 1486.73 755.807 1480.25 741.985 1475.83L740.23 1475.28C730.67 1474.46 723.285 1469.88 714.752 1470.54zM1197.15 1374.37C1214.24 1366.32 1226.14 1366.8 1244.36 1368.64 1264.61 1372.03 1284.93 1376.91 1305.09 1381.02 1288.51 1382.76 1261.43 1375.18 1245.35 1371.49 1242.67 1370.87 1224.45 1371.79 1220.74 1371.92 1207.29 1372.66 1203.51 1377.91 1194.66 1379.15L1197.15 1374.37z" class="svgShape color314359-106 selectable"/><path fill="#14324F" d="M 1423.47 1203.82 C 1433.77 1203.91 1436.42 1199.86 1446.07 1197.81 C 1434.57 1211.61 1417.17 1209.05 1400.8 1209.72 L 1394.73 1212.59 C 1394.71 1209.14 1394.39 1208.15 1396.38 1205.33 C 1399.98 1202.54 1404.59 1202.38 1409.27 1201.62 C 1413.43 1202.2 1419.57 1202.86 1423.47 1203.82 z" class="svgShape color14324f-107 selectable"/><path fill="#26496A" d="M 1450.72 1181.14 C 1450.76 1188.37 1449.36 1191.34 1446.07 1197.81 C 1436.42 1199.86 1433.77 1203.91 1423.47 1203.82 C 1419.57 1202.86 1413.43 1202.2 1409.27 1201.62 C 1419.93 1199.77 1446.92 1192.13 1450.72 1181.14 z" class="svgShape color26496a-108 selectable"/><path fill="#2F5379" d="M 1158.74 1425.07 C 1158.92 1419.05 1160.21 1413.12 1162.54 1407.56 C 1169.23 1391.21 1181.14 1381.05 1197.15 1374.37 L 1194.66 1379.15 C 1169.45 1389.89 1169.6 1410.6 1158.74 1425.07 z" class="svgShape color2f5379-109 selectable"/><path fill="#26496A" d="M 1439.93 1155.77 C 1437.38 1151.71 1433.06 1144.34 1430.41 1139.94 C 1430.58 1133.69 1438.65 1119.27 1445.04 1118.66 C 1439.61 1127.16 1438.17 1129.5 1440.86 1139.03 C 1439.34 1143.86 1439.62 1150.68 1439.93 1155.77 z" class="svgShape color26496a-110 selectable"/><path fill="#6586AD" d="M 1433.14 1159.95 C 1438.2 1164.33 1443.93 1170.74 1448.71 1174.16 L 1449.38 1176.14 L 1447.46 1179.53 C 1446.25 1179.82 1442.04 1180.74 1441.16 1181.1 C 1441.73 1175.06 1435.89 1167.37 1433.14 1159.95 z" class="svgShape color6586ad-111 selectable"/><path fill="#6091C3" d="M 1441.16 1181.1 L 1439.89 1183.16 C 1436.42 1180.18 1427.74 1159.24 1430.18 1155.34 C 1432.31 1156.92 1432.35 1157.45 1433.14 1159.95 C 1435.89 1167.37 1441.73 1175.06 1441.16 1181.1 z" class="svgShape color6091c3-112 selectable"/><path fill="#85ACD7" d="M 1394.99 1216.04 C 1405.94 1219.29 1416.76 1218.27 1427.47 1221.58 C 1433.35 1223.39 1433.7 1226.53 1432.93 1231.69 L 1430.44 1231.58 C 1419.67 1224.34 1412.69 1223.36 1400.06 1220.37 C 1396.79 1219.6 1396.34 1218.76 1394.99 1216.04 z" class="svgShape color85acd7-113 selectable"/><path fill="url(#m)" d="M 1065.51 788.851 C 1082.74 788.964 1111.65 790.006 1128.04 788.857 L 1135.04 790.288 C 1139.51 793.622 1141.2 795.345 1141.95 800.946 L 1142.81 803.134 C 1143.15 800.733 1143.79 798.567 1144.4 796.226 C 1146.81 807.559 1148.24 877.787 1143.56 885.545 C 1140.17 891.173 1134.67 893.344 1130.03 897.487 C 1126.08 901.003 1118.95 915.679 1118.5 921.018 C 1121.55 926.827 1128.87 941.408 1133.46 945.737 C 1147.52 958.979 1175.1 970.945 1193.2 978.041 C 1198.47 980.107 1218.11 981.702 1221.16 983.19 C 1230.63 987.82 1239.69 997.182 1250.23 1001.46 C 1257.68 1004.49 1281.7 1005.98 1285.43 1008.24 C 1282 1010.12 1255.09 1007.65 1251.72 1005.61 C 1228.56 992.037 1217.63 984.763 1190.73 979.821 C 1177.33 977.359 1146.18 960.393 1135.28 951.786 C 1127.51 945.655 1104.61 905.95 1113.69 897.034 C 1115.78 896.758 1118.46 896.879 1120.41 897.579 C 1126.67 899.829 1130.15 894.598 1136.67 891.892 C 1134.18 889.801 1132.89 889.957 1129.34 890.23 C 1066.61 895.058 1002.64 890.396 939.699 892.034 C 914.63 892.687 890.407 893.85 865.313 893.124 C 855.821 892.773 839.412 894.083 830.462 892.388 L 825.898 892.837 L 838.196 895.689 L 837.617 896.403 C 833.246 896.529 831.508 895.888 828.084 897.921 C 824.336 894.964 821.941 895.775 818.989 890.654 L 817.844 890.796 L 817.129 889.162 C 813.67 881.353 814.858 848.328 814.808 837.678 C 815.892 830.823 813.288 822.029 815.671 814.606 L 818.797 813.162 L 819.241 812.162 C 820.034 809.128 819.951 794.684 819.999 790.649 C 825.07 791.489 830.619 795.211 833.988 795.618 C 842.215 796.613 852.153 795.927 860.615 796.106 C 871.723 795.6 915.481 797.321 922.649 795.901 C 945.958 796.054 969.267 796.029 992.575 795.828 C 986.852 794.322 968.541 794.464 961.771 794.336 C 969.515 794.243 989.12 795.299 994.427 790.976 L 994.278 789.919 C 987.525 790.396 971.791 790.506 965.468 789.155 C 986.611 788.88 1007.76 788.84 1028.9 789.034 C 1037.6 789.087 1057.51 789.673 1065.51 788.851 z" class="svgShape colorgradient-114 selectable"/><path fill="#0C1A2C" d="M 1144.4 796.226 C 1146.81 807.559 1148.24 877.787 1143.56 885.545 C 1140.17 891.173 1134.67 893.344 1130.03 897.487 C 1126.08 901.003 1118.95 915.679 1118.5 921.018 C 1121.55 926.827 1128.87 941.408 1133.46 945.737 C 1147.52 958.979 1175.1 970.945 1193.2 978.041 C 1198.47 980.107 1218.11 981.702 1221.16 983.19 C 1230.63 987.82 1239.69 997.182 1250.23 1001.46 C 1257.68 1004.49 1281.7 1005.98 1285.43 1008.24 C 1282 1010.12 1255.09 1007.65 1251.72 1005.61 C 1228.56 992.037 1217.63 984.763 1190.73 979.821 C 1177.33 977.359 1146.18 960.393 1135.28 951.786 C 1127.51 945.655 1104.61 905.95 1113.69 897.034 C 1115.78 896.758 1118.46 896.879 1120.41 897.579 C 1126.67 899.829 1130.15 894.598 1136.67 891.892 C 1134.18 889.801 1132.89 889.957 1129.34 890.23 C 1066.61 895.058 1002.64 890.396 939.699 892.034 C 914.63 892.687 890.407 893.85 865.313 893.124 C 855.821 892.773 839.412 894.083 830.462 892.388 L 825.898 892.837 L 838.196 895.689 L 837.617 896.403 C 833.246 896.529 831.508 895.888 828.084 897.921 C 824.336 894.964 821.941 895.775 818.989 890.654 L 819.203 890.378 C 820.681 890.377 826.088 886.796 827.836 885.753 L 824.267 886.417 L 824.418 885.858 C 827.826 883.475 830.253 883.976 834.666 883.882 C 841.133 884.602 860.95 884.011 868.325 883.927 C 892.779 883.453 917.236 883.154 941.693 883.029 L 1070.79 883.145 C 1082.53 883.136 1120.17 883.799 1130.28 882.23 C 1136.35 880.985 1137.5 879.542 1142.62 875.942 C 1143.18 861.553 1142.75 846.564 1143.14 831.978 L 1142.81 803.134 C 1143.15 800.733 1143.79 798.567 1144.4 796.226 z" class="svgShape color0c1a2c-115 selectable"/><path fill="#01050E" d="M 1144.4 796.226 C 1146.81 807.559 1148.24 877.787 1143.56 885.545 C 1140.17 891.173 1134.67 893.344 1130.03 897.487 C 1126.08 901.003 1118.95 915.679 1118.5 921.018 C 1121.55 926.827 1128.87 941.408 1133.46 945.737 C 1147.52 958.979 1175.1 970.945 1193.2 978.041 C 1198.47 980.107 1218.11 981.702 1221.16 983.19 C 1230.63 987.82 1239.69 997.182 1250.23 1001.46 C 1257.68 1004.49 1281.7 1005.98 1285.43 1008.24 C 1282 1010.12 1255.09 1007.65 1251.72 1005.61 C 1228.56 992.037 1217.63 984.763 1190.73 979.821 C 1177.33 977.359 1146.18 960.393 1135.28 951.786 C 1127.51 945.655 1104.61 905.95 1113.69 897.034 C 1115.78 896.758 1118.46 896.879 1120.41 897.579 C 1126.67 899.829 1130.15 894.598 1136.67 891.892 C 1134.18 889.801 1132.89 889.957 1129.34 890.23 C 1066.61 895.058 1002.64 890.396 939.699 892.034 C 914.63 892.687 890.407 893.85 865.313 893.124 C 855.821 892.773 839.412 894.083 830.462 892.388 C 835.983 891.187 877.368 892.22 886.628 891.957 C 962.494 889.802 1038.75 892.026 1114.63 889.832 C 1120.65 889.658 1139.01 888.569 1141.45 883.638 C 1146.01 874.419 1143.97 841.982 1143.14 831.978 L 1142.81 803.134 C 1143.15 800.733 1143.79 798.567 1144.4 796.226 z" class="svgShape color01050e-116 selectable"/><path fill="url(#n)" d="M 819.999 790.649 C 825.07 791.489 830.619 795.211 833.988 795.618 C 842.215 796.613 852.153 795.927 860.615 796.106 C 853.071 798.411 846.06 796.028 839.71 797.679 C 842.898 806.412 841.323 821.955 836.32 829.786 C 828.158 842.559 824.35 853.067 828.648 868.114 C 830.58 875.558 821.044 880.848 834.666 883.882 C 830.253 883.976 827.826 883.475 824.418 885.858 L 824.267 886.417 L 827.836 885.753 C 826.088 886.796 820.681 890.377 819.203 890.378 L 818.989 890.654 L 817.844 890.796 L 817.129 889.162 C 813.67 881.353 814.858 848.328 814.808 837.678 C 815.892 830.823 813.288 822.029 815.671 814.606 L 818.797 813.162 L 819.241 812.162 C 820.034 809.128 819.951 794.684 819.999 790.649 z" class="svgShape colorgradient-117 selectable"/><path fill="#93C5EE" d="M 1065.51 788.851 C 1082.74 788.964 1111.65 790.006 1128.04 788.857 L 1135.04 790.288 C 1136.78 795.763 1137.31 796.548 1134.18 801.673 C 1132.19 799.386 1129.63 797.122 1126.53 796.793 C 1112.12 795.266 1096.69 795.88 1082.23 795.906 C 1052.34 796.147 1022.46 796.121 992.575 795.828 C 986.852 794.322 968.541 794.464 961.771 794.336 C 969.515 794.243 989.12 795.299 994.427 790.976 L 994.278 789.919 C 987.525 790.396 971.791 790.506 965.468 789.155 C 986.611 788.88 1007.76 788.84 1028.9 789.034 C 1037.6 789.087 1057.51 789.673 1065.51 788.851 z" class="svgShape color93c5ee-118 selectable"/><path fill="#26496A" d="M 1135.04 790.288 C 1139.51 793.622 1141.2 795.345 1141.95 800.946 L 1142.81 803.134 L 1143.14 831.978 C 1142.75 846.564 1143.18 861.553 1142.62 875.942 C 1137.5 879.542 1136.35 880.985 1130.28 882.23 C 1131.27 881.284 1135.36 878.886 1135.41 878.81 C 1139.65 871.079 1137.46 845.187 1136.97 836.937 C 1134.94 833.532 1134.69 807.913 1134.18 801.673 C 1137.31 796.548 1136.78 795.763 1135.04 790.288 z" class="svgShape color26496a-119 selectable"/><path fill="#58718C" d="M 1135.04 790.288 C 1139.51 793.622 1141.2 795.345 1141.95 800.946 C 1136.13 807.587 1137.06 827.625 1136.97 836.937 C 1134.94 833.532 1134.69 807.913 1134.18 801.673 C 1137.31 796.548 1136.78 795.763 1135.04 790.288 z" class="svgShape color58718c-120 selectable"/><path fill="#314359" d="M 1071.76 747.985 C 1075.11 749.039 1077.43 740.46 1078.57 737.817 C 1110.1 664.633 1178.43 653.539 1248.51 660.404 C 1242.12 664.312 1234.54 667.7 1229.06 671.154 L 1228.37 672.515 C 1231.82 673.338 1233.12 673.208 1236.59 673.201 L 1235.69 673.388 C 1230.44 674.445 1226.27 673.842 1222.18 675.8 C 1220.46 678.966 1220.86 677.204 1221.82 681.423 L 1206.86 682.616 C 1202.26 683.49 1196.52 684.411 1192.1 685.645 C 1146.98 695.383 1116.11 729.17 1111.78 775.348 C 1111.38 778.016 1110.99 780.458 1110.72 783.151 C 1108.67 785.01 1109.54 784.525 1106.87 785.371 L 1107.7 787.445 C 1114.97 788.764 1122.18 787.58 1128.04 788.857 C 1111.65 790.006 1082.74 788.964 1065.51 788.851 L 1064.66 788.874 C 1064.51 785.426 1064.81 781.821 1064.99 778.353 C 1067.54 767.896 1064.7 758.305 1071.76 747.985 z" class="svgShape color314359-121 selectable"/><path fill="#0C1A2C" d="M 1106.87 785.371 C 1108.04 737.843 1141.21 696.802 1186.42 684.523 C 1191.42 683.166 1202.28 680.118 1206.86 682.616 C 1202.26 683.49 1196.52 684.411 1192.1 685.645 C 1146.98 695.383 1116.11 729.17 1111.78 775.348 C 1111.38 778.016 1110.99 780.458 1110.72 783.151 C 1108.67 785.01 1109.54 784.525 1106.87 785.371 z" class="svgShape color0c1a2c-122 selectable"/><path fill="#D2D9E5" d="M 651.841 898.157 C 670.571 897.703 692.277 897.307 711.037 897.746 C 711.009 912.609 711.852 938.542 710.929 952.408 L 712.445 954.943 C 709.437 959.36 708.459 958.233 703.052 957.815 C 689.815 958.509 671.603 957.973 657.983 957.991 C 655.037 958.027 654.233 958.314 651.59 957.046 L 650.843 954.592 C 651.418 943.93 651.026 930.958 650.977 920.13 C 651.189 913.412 651.108 909.84 650.513 903.151 C 650.576 900.44 650.27 900.241 651.841 898.157 z" class="svgShape colord2d9e5-123 selectable"/><path fill="#B0B4BF" d="M 656.968 951.192 C 674.963 950.591 692.979 950.998 710.929 952.408 L 712.445 954.943 C 709.437 959.36 708.459 958.233 703.052 957.815 C 689.815 958.509 671.603 957.973 657.983 957.991 C 655.037 958.027 654.233 958.314 651.59 957.046 L 650.843 954.592 L 656.968 951.192 z" class="svgShape colorb0b4bf-124 selectable"/><path fill="#F7F8F4" d="M 651.841 898.157 C 670.571 897.703 692.277 897.307 711.037 897.746 L 709.622 903.048 C 703.749 906.139 665.768 903.993 657.149 903.636 C 654.609 901.854 652.702 901.038 651.841 898.157 z" class="svgShape colorf7f8f4-125 selectable"/><path fill="#B0B4BF" d="M 650.513 903.151 C 650.576 900.44 650.27 900.241 651.841 898.157 C 652.702 901.038 654.609 901.854 657.149 903.636 C 656.969 919.487 656.908 935.34 656.968 951.192 L 650.843 954.592 C 651.418 943.93 651.026 930.958 650.977 920.13 C 651.189 913.412 651.108 909.84 650.513 903.151 z" class="svgShape colorb0b4bf-126 selectable"/><path fill="url(#o)" d="M 1144.83 398.696 C 1246.26 420.855 1334.77 482.338 1390.94 569.66 C 1403.26 588.839 1419.2 617.917 1425.22 639.794 L 1424.82 641.238 C 1423.55 641.169 1417.51 640.782 1417.08 639.77 C 1407.45 617.365 1397.73 597.07 1384.73 576.208 C 1340.26 504.866 1270.35 449.445 1191.54 420.518 C 1176.91 415.146 1161.99 411.404 1147.28 407.615 C 1149.41 406.197 1148.47 406.858 1149.85 404.105 C 1148.55 400.706 1148.25 401.335 1144.83 398.696 z" class="svgShape colorgradient-127 selectable"/><path fill="#D2D9E5" d="M 763.94 756.925 C 772.703 756.816 780.693 756.766 789.484 757.126 C 796.396 757.021 813.552 755.446 818.589 758.708 C 819.423 761.291 819.239 761.568 819.192 764.335 C 818.92 779.024 818.797 793.715 818.823 808.406 L 819.241 812.162 L 818.797 813.162 C 801.26 812.88 783.052 813.159 765.459 813.203 L 763.566 812.767 C 764.96 800.94 764.042 770.036 763.94 756.925 z" class="svgShape colord2d9e5-128 selectable"/><path fill="url(#p)" d="M 763.94 756.925 C 772.703 756.816 780.693 756.766 789.484 757.126 C 783.06 757.557 771.625 757.215 766.518 758.566 L 765.444 759.855 C 766.674 762.421 766.68 762.247 768.853 764.146 C 769.658 776.435 769.017 794.218 768.898 806.949 C 785.478 807.039 802.277 807.174 818.823 808.406 L 819.241 812.162 L 818.797 813.162 C 801.26 812.88 783.052 813.159 765.459 813.203 L 763.566 812.767 C 764.96 800.94 764.042 770.036 763.94 756.925 z" class="svgShape colorgradient-129 selectable"/><path fill="#F7F8F4" d="M 789.484 757.126 C 796.396 757.021 813.552 755.446 818.589 758.708 C 819.423 761.291 819.239 761.568 819.192 764.335 C 802.414 763.993 785.632 763.93 768.853 764.146 C 766.68 762.247 766.674 762.421 765.444 759.855 L 766.518 758.566 C 771.625 757.215 783.06 757.557 789.484 757.126 z" class="svgShape colorf7f8f4-130 selectable"/><path fill="#3C6A94" d="M 892.423 724.25 L 894.012 728.775 C 893.482 738.497 893.809 749.227 893.905 759.037 C 902.614 758.844 921.261 757.423 928.325 760.885 L 929.137 760.816 C 930.845 767.183 932.71 786.103 923.753 787.949 C 919.988 788.725 907.957 787.794 905.255 789.809 C 913.795 791.609 952.147 788.039 965.468 789.155 C 971.791 790.506 987.525 790.396 994.278 789.919 L 994.427 790.976 C 989.12 795.299 969.515 794.243 961.771 794.336 C 968.541 794.464 986.852 794.322 992.575 795.828 C 969.267 796.029 945.958 796.054 922.649 795.901 C 915.481 797.321 871.723 795.6 860.615 796.106 C 852.153 795.927 842.215 796.613 833.988 795.618 C 830.619 795.211 825.07 791.489 819.999 790.649 C 826.474 785.904 883.011 791.312 889.16 785.519 C 885.638 781.747 880.533 777.32 880.116 772.425 C 878.911 758.249 882.125 742.515 890.368 731.115 L 891.078 730.151 C 891.248 728.098 891.88 726.263 892.423 724.25 z" class="svgShape color3c6a94-131 selectable"/><path fill="#85ACD7" d="M 905.255 789.809 C 913.795 791.609 952.147 788.039 965.468 789.155 C 971.791 790.506 987.525 790.396 994.278 789.919 L 994.427 790.976 C 989.12 795.299 969.515 794.243 961.771 794.336 C 968.541 794.464 986.852 794.322 992.575 795.828 C 969.267 796.029 945.958 796.054 922.649 795.901 C 920.18 795.014 866.263 793.928 857.459 793.528 C 863.934 793.446 868.732 791.766 875.3 791.179 C 885.37 790.279 895.161 790.068 905.255 789.809 z" class="svgShape color85acd7-132 selectable"/><path fill="#0C1A2C" d="M 892.423 724.25 L 894.012 728.775 C 893.482 738.497 893.809 749.227 893.905 759.037 C 902.614 758.844 921.261 757.423 928.325 760.885 C 923.68 763.386 920.744 770.515 914.5 776.51 C 907.033 776.523 901.83 777.929 895.917 772.479 C 888.092 765.268 891.136 741.755 891.078 730.151 C 891.248 728.098 891.88 726.263 892.423 724.25 z" class="svgShape color0c1a2c-133 selectable"/><path fill="#93C5EE" d="M 910.684 410.427 C 922.139 411.559 955.08 394.64 963.634 400.019 L 963.913 401.854 C 962.125 403.536 915.597 413.552 906.698 419.362 L 907.057 420.31 C 892.761 427.147 878.225 432.001 863.261 439.617 C 806.402 468.553 763.235 508.728 723.015 557.577 C 713.677 568.917 696.6 601.764 692.424 605.698 L 686.464 611.295 C 692.292 593.956 704.873 576.644 715.94 561.901 L 714.818 561.369 L 712.371 562.894 C 714.464 556.165 723.665 550.711 725.829 541.245 C 729.244 535.789 743.627 520.311 748.327 515.195 C 789.251 470.645 852.774 428.877 910.684 410.427 z" class="svgShape color93c5ee-134 selectable"/><path fill="url(#q)" d="M 640.906 798.875 C 641.543 809.432 639.635 819.097 640.08 829.846 C 642.877 829.842 646.481 829.935 649.193 829.752 C 657.975 829.496 672.889 828.827 681.299 829.888 L 682.754 831.856 C 676.2 874.008 649.17 854.056 642.652 864.34 C 642.303 868.916 643.95 875.459 645.202 879.99 C 646.867 887.425 648.337 896.059 650.513 903.151 C 651.108 909.84 651.189 913.412 650.977 920.13 C 637.593 917.703 632.078 824.278 631.876 810.267 C 633.582 809.8 635.906 808.788 637.613 808.117 C 640.31 805.407 640.247 802.742 640.906 798.875 z" class="svgShape colorgradient-135 selectable"/><path fill="#0C1A2C" d="M 649.193 829.752 C 657.975 829.496 672.889 828.827 681.299 829.888 L 682.754 831.856 C 669.368 836.681 672.87 842.102 661.821 848.121 C 649.688 854.731 643.117 839.12 640.08 829.846 C 642.877 829.842 646.481 829.935 649.193 829.752 z" class="svgShape color0c1a2c-136 selectable"/><path fill="#58718C" d="M 744.832 819.295 C 746.08 810.647 749.039 796.465 749.751 788.994 C 750.501 801.684 745.958 817.631 750.423 828.718 C 750.752 829.535 756.17 831.459 757.612 832.361 L 758.551 828.041 L 759.928 827.424 C 770.024 833.022 769.665 834.024 780.753 833.291 C 778.296 826.77 769.308 825.153 769.708 814.141 L 765.459 813.203 C 783.052 813.159 801.26 812.88 818.797 813.162 L 815.671 814.606 C 813.288 822.029 815.892 830.823 814.808 837.678 C 812.887 835.007 813.573 834.894 813.479 830.841 C 812.594 831.599 808.95 839.965 807.723 841.214 C 800.611 847.169 798.479 850.538 788.247 852.467 C 769.795 855.298 765.209 837.415 749.483 833.137 C 747.272 832.536 745.383 821.044 744.832 819.295 z" class="svgShape color58718c-137 selectable"/><path fill="#0C1A2C" d="M 769.708 814.141 C 777.151 814.074 802.417 813.428 808.381 814.522 C 810.06 817.152 809.581 815.697 809.433 819.145 C 803.293 829.366 792.041 832.888 780.753 833.291 C 778.296 826.77 769.308 825.153 769.708 814.141 z" class="svgShape color0c1a2c-138 selectable"/><path fill="#ABE1FC" d="M 910.684 410.427 C 968.716 387.95 1052.36 381.723 1113.05 392.504 C 1122.76 394.229 1135.54 395.908 1144.83 398.696 C 1148.25 401.335 1148.55 400.706 1149.85 404.105 C 1148.47 406.858 1149.41 406.197 1147.28 407.615 C 1059.73 387.54 992.298 391.714 907.057 420.31 L 906.698 419.362 C 915.597 413.552 962.125 403.536 963.913 401.854 L 963.634 400.019 C 955.08 394.64 922.139 411.559 910.684 410.427 z" class="svgShape colorabe1fc-139 selectable"/><path fill="#2F5379" d="M 712.445 954.943 C 713.349 966.22 713.626 973.762 706.249 983.366 C 698.429 993.546 689.567 993.592 695.734 1007.22 L 694.951 1006.54 C 691.751 1003.73 691.495 1003.47 689.184 999.985 C 689.033 1003.36 688.962 1006.73 688.969 1010.1 C 687.108 1006.58 681.085 996.284 680.551 993.263 C 674.554 982.832 671.794 971.659 665.498 961.611 C 663.315 958.129 661.83 958.643 657.983 957.991 C 671.603 957.973 689.815 958.509 703.052 957.815 C 708.459 958.233 709.437 959.36 712.445 954.943 z" class="svgShape color2f5379-140 selectable"/><path fill="url(#r)" d="M 657.983 957.991 C 671.603 957.973 689.815 958.509 703.052 957.815 C 697.069 969.806 689.757 970.635 679.878 975.599 C 675.821 977.637 684.232 988.017 680.551 993.263 C 674.554 982.832 671.794 971.659 665.498 961.611 C 663.315 958.129 661.83 958.643 657.983 957.991 z" class="svgShape colorgradient-141 selectable"/><path fill="#2F5379" d="M 640.436 796.957 C 641.182 795.046 641.957 793.146 642.76 791.257 L 644.11 794.435 L 644.84 794.163 C 648.99 797.183 675.944 796.63 681.214 794.968 C 681.742 800.031 681.02 822.424 681 829 C 672.803 828.999 656.487 828.563 648.968 829.308 L 649.193 829.752 C 646.481 829.935 642.877 829.842 640.08 829.846 C 639.635 819.097 641.543 809.432 640.906 798.875 L 640.436 796.957 z" class="svgShape color2f5379-142 selectable"/><path fill="#14324F" d="M 640.436 796.957 C 641.182 795.046 641.957 793.146 642.76 791.257 L 644.11 794.435 C 644.247 804.253 643.858 818.929 644.928 828.079 C 647.194 829.674 645.958 829.062 648.968 829.308 L 649.193 829.752 C 646.481 829.935 642.877 829.842 640.08 829.846 C 639.635 819.097 641.543 809.432 640.906 798.875 L 640.436 796.957 z" class="svgShape color14324f-143 selectable"/><path fill="url(#s)" d="M 744.832 819.295 C 744.122 816.702 744.031 816.096 742.828 813.732 L 741.163 814.098 L 741.772 813.525 L 743.355 815.073 L 740.478 815.379 L 739.792 816.81 L 737.972 816.786 L 737.396 815.003 C 739.52 807.056 738.746 793 743.524 787.355 C 741.034 787.048 742.117 787.439 740.215 786.364 C 740.202 785.304 740.19 784.244 740.177 783.185 C 746.437 775.959 756.767 771.419 762.131 763.448 C 762.33 763.153 762.528 762.857 762.726 762.562 C 763.54 775.604 762.184 802.832 763.566 812.767 L 765.459 813.203 L 769.708 814.141 C 769.308 825.153 778.296 826.77 780.753 833.291 C 769.665 834.024 770.024 833.022 759.928 827.424 L 758.551 828.041 L 757.612 832.361 C 756.17 831.459 750.752 829.535 750.423 828.718 C 745.958 817.631 750.501 801.684 749.751 788.994 C 749.039 796.465 746.08 810.647 744.832 819.295 z" class="svgShape colorgradient-144 selectable"/><path fill="#314359" d="M 929.425 725.508 C 928.547 736.679 929.279 749.472 929.137 760.816 L 928.325 760.885 C 921.261 757.423 902.614 758.844 893.905 759.037 C 893.809 749.227 893.482 738.497 894.012 728.775 C 902.088 729.175 910.63 729.704 918.677 729.514 C 925.411 729.355 925.511 729.582 929.425 725.508 z" class="svgShape color314359-145 selectable"/><path fill="#6586AD" d="M 1148.38 664.006 C 1153.01 663.801 1169.75 656.901 1176.96 656.284 C 1203.95 653.97 1231.84 653.805 1258.77 654.108 C 1257.35 654.974 1249.32 659.724 1248.51 660.404 C 1178.43 653.539 1110.1 664.633 1078.57 737.817 C 1077.43 740.46 1075.11 749.039 1071.76 747.985 C 1089.02 704.525 1106.32 683.405 1148.38 664.006 z" class="svgShape color6586ad-146 selectable"/><path fill="#58718C" d="M 642.76 791.257 L 644.441 791.345 C 652.624 791.731 679.917 789.024 683.383 791.899 C 685.115 797.539 684.694 810.009 684.475 814.948 C 683.759 831.103 685.326 872.452 659.453 868.112 C 652.809 866.997 649.416 875.594 645.202 879.99 C 643.95 875.459 642.303 868.916 642.652 864.34 C 649.17 854.056 676.2 874.008 682.754 831.856 L 681.299 829.888 C 672.889 828.827 657.975 829.496 649.193 829.752 L 648.968 829.308 C 656.487 828.563 672.803 828.999 681 829 C 681.02 822.424 681.742 800.031 681.214 794.968 C 675.944 796.63 648.99 797.183 644.84 794.163 L 644.11 794.435 L 642.76 791.257 z" class="svgShape color58718c-147 selectable"/><path fill="#6091C3" d="M 644.84 794.163 C 646.591 792.119 645.574 792.411 647.544 792.225 C 653.646 791.647 676.26 791.055 680.522 793.516 L 681.214 794.968 C 675.944 796.63 648.99 797.183 644.84 794.163 z" class="svgShape color6091c3-148 selectable"/><path fill="url(#t)" d="M 1062.11 752.275 C 1063.74 736.167 1082.07 709.46 1093.02 698.029 C 1105.47 685.031 1130.51 667.46 1148.38 664.006 C 1106.32 683.405 1089.02 704.525 1071.76 747.985 C 1064.7 758.305 1067.54 767.896 1064.99 778.353 C 1061.66 769.732 1065.82 757.615 1062.11 752.275 z" class="svgShape colorgradient-149 selectable"/><path fill="#2F5379" d="M 718.595 1048.87 C 726.926 1062.94 746.925 1111.63 751.023 1127.77 C 748.934 1136.54 750.717 1177.04 748.373 1179.72 C 748.524 1131.04 741.489 1116.53 722.485 1072.18 C 721.625 1064.36 721.205 1063.08 718.445 1056.04 L 718.595 1048.87 z" class="svgShape color2f5379-150 selectable"/><path fill="#26496A" d="M 688.969 1010.1 C 688.962 1006.73 689.033 1003.36 689.184 999.985 C 691.495 1003.47 691.751 1003.73 694.951 1006.54 L 695.734 1007.22 C 701.933 1018.42 714.225 1038.08 718.595 1048.87 L 718.445 1056.04 C 721.205 1063.08 721.625 1064.36 722.485 1072.18 C 715.854 1061.21 706.136 1041.66 699.711 1029.74 C 695.854 1023.35 692.27 1016.8 688.969 1010.1 z" class="svgShape color26496a-151 selectable"/><path fill="#314359" d="M 699.711 1029.74 C 704.73 1035.13 714.84 1045.01 716.746 1050.88 L 718.445 1056.04 C 721.205 1063.08 721.625 1064.36 722.485 1072.18 C 715.854 1061.21 706.136 1041.66 699.711 1029.74 z" class="svgShape color314359-152 selectable"/><path fill="#3C6A94" d="M 631.876 810.267 C 631.744 787.96 632.473 767.646 635.566 745.529 C 636.634 748.243 637.834 751.529 639.021 754.13 C 638.677 764.388 635.31 787.877 637.487 795.826 C 639.438 797.028 638.507 796.934 640.436 796.957 L 640.906 798.875 C 640.247 802.742 640.31 805.407 637.613 808.117 C 635.906 808.788 633.582 809.8 631.876 810.267 z" class="svgShape color3c6a94-153 selectable"/><path fill="#6586AD" d="M 650.187 683.195 C 653.664 692.463 642.324 734.811 640.157 746.495 L 639.021 754.13 C 637.834 751.529 636.634 748.243 635.566 745.529 C 636.327 740.879 637.125 736.235 637.961 731.597 C 639.186 720.331 646.548 693.926 650.187 683.195 z" class="svgShape color6586ad-154 selectable"/><path fill="#6091C3" d="M 637.961 731.597 C 640.056 738.215 640.127 739.596 640.157 746.495 L 639.021 754.13 C 637.834 751.529 636.634 748.243 635.566 745.529 C 636.327 740.879 637.125 736.235 637.961 731.597 z" class="svgShape color6091c3-155 selectable"/><path fill="#14324F" d="M 1062.11 752.275 C 1065.82 757.615 1061.66 769.732 1064.99 778.353 C 1064.81 781.821 1064.51 785.426 1064.66 788.874 C 1060.65 788.182 1058.4 788.492 1055.71 786.12 C 1053.65 778.439 1059.5 760.181 1062.11 752.275 z" class="svgShape color14324f-156 selectable"/><path fill="#6586AD" d="M 892.423 724.25 C 898.987 724.254 925.775 723.531 929.425 725.508 C 925.511 729.582 925.411 729.355 918.677 729.514 C 910.63 729.704 902.088 729.175 894.012 728.775 L 892.423 724.25 z" class="svgShape color6586ad-157 selectable"/><path fill="#D2D9E5" d="M 781.02 961.938 C 788.254 961.759 837.076 959.543 841.504 962.718 C 841.33 969.452 841.219 976.187 841.169 982.922 C 841.619 990.75 843.425 1014.43 840.726 1020.72 C 839.464 1021.04 838.386 1021.38 837.107 1021.52 C 838.82 1021.92 840.227 1022.29 841.915 1022.79 C 847.419 1033.64 834.095 1052.66 824.993 1058.65 C 822.335 1060.4 816.506 1057.62 813.338 1056.84 C 803.561 1054.44 792.863 1058.35 783.154 1055.94 C 769.757 1047.58 757.594 1032.26 764.49 1015.86 L 763.209 1014.52 C 767.815 1010.09 764.424 996.669 771.097 991.887 C 772.403 992.965 771.552 1001.64 772.022 1005.52 L 773.208 1004.53 C 773.047 1000.06 779.224 993.97 777.413 982.182 L 775.832 981.117 L 775.633 978.865 C 774.018 983.136 771.124 986.269 767.932 989.442 C 766.549 983.995 775.9 973.3 780.927 971.757 L 781.02 961.938 z" class="svgShape colord2d9e5-158 selectable"/><path fill="#2F5379" d="M 837.107 1021.52 C 838.82 1021.92 840.227 1022.29 841.915 1022.79 C 847.419 1033.64 834.095 1052.66 824.993 1058.65 C 822.335 1060.4 816.506 1057.62 813.338 1056.84 C 803.561 1054.44 792.863 1058.35 783.154 1055.94 C 769.757 1047.58 757.594 1032.26 764.49 1015.86 L 763.209 1014.52 C 767.815 1010.09 764.424 996.669 771.097 991.887 C 772.403 992.965 771.552 1001.64 772.022 1005.52 L 773.208 1004.53 C 773.047 1000.06 779.224 993.97 777.413 982.182 L 775.832 981.117 L 775.633 978.865 C 774.018 983.136 771.124 986.269 767.932 989.442 C 766.549 983.995 775.9 973.3 780.927 971.757 C 780.923 985.022 781.458 1004.59 780.38 1017.33 L 781.313 1020.12 C 787.652 1022.38 826.918 1020.7 837.107 1021.52 z" class="svgShape color2f5379-159 selectable"/><path fill="#0C1A2C" d="M 779.399 1022.23 C 796.563 1021.75 818.689 1021.75 835.714 1022.35 C 833.968 1027.73 832.933 1031.84 829.788 1036.62 C 824.034 1040.92 818.187 1041.82 811.108 1042.17 C 794.669 1042.96 779.86 1041.54 779.399 1022.23 z" class="svgShape color0c1a2c-160 selectable"/><path fill="#F7F8F4" d="M 781.02 961.938 C 788.254 961.759 837.076 959.543 841.504 962.718 C 837.115 967.586 834.337 967.86 827.697 968.017 C 820.752 968.18 788.625 968.802 784.326 966.613 L 781.02 961.938 z" class="svgShape colorf7f8f4-161 selectable"/><path fill="#B0B4BF" d="M 841.169 982.922 C 841.619 990.75 843.425 1014.43 840.726 1020.72 C 839.464 1021.04 838.386 1021.38 837.107 1021.52 C 826.918 1020.7 787.652 1022.38 781.313 1020.12 L 780.38 1017.33 C 792.611 1015.31 803.728 1017.88 815.056 1016.91 C 823.733 1016.98 832.41 1016.92 841.085 1016.75 C 840.957 1005.61 840.627 994.011 841.169 982.922 z" class="svgShape colorb0b4bf-162 selectable"/><path fill="#CAC9C9" d="M 780.927 971.757 L 781.02 961.938 L 784.326 966.613 C 786.051 971.003 785.709 1008.51 785.555 1015.66 C 794.844 1015.77 806.023 1015.54 815.056 1016.91 C 803.728 1017.88 792.611 1015.31 780.38 1017.33 C 781.458 1004.59 780.923 985.022 780.927 971.757 z" class="svgShape colorcac9c9-163 selectable"/><path fill="#2F5379" d="M 676.531 701.834 C 679.348 700.28 710.463 701.494 715.536 701.923 C 716.12 714.507 715.471 727.572 715.88 740.189 L 715.092 742.193 C 715.737 743.209 715.75 744.15 715.686 745.417 C 714.437 764.776 704.532 776.199 684.228 773.733 C 655.89 770.292 656.975 718.399 676.03 706.84 L 676.531 701.834 z" class="svgShape color2f5379-164 selectable"/><path fill="#D2D9E5" d="M 676.531 701.834 C 679.348 700.28 710.463 701.494 715.536 701.923 C 716.12 714.507 715.471 727.572 715.88 740.189 C 709.822 738.577 686.008 738.883 677.841 738.522 C 682.213 728.895 683.322 716 677.207 706.901 L 676.531 701.834 z" class="svgShape colord2d9e5-165 selectable"/><path fill="#F7F8F4" d="M 676.531 701.834 C 679.348 700.28 710.463 701.494 715.536 701.923 C 714.783 703.929 714.806 705.289 713.295 705.676 C 702.79 708.371 688.14 706.201 677.207 706.901 L 676.531 701.834 z" class="svgShape colorf7f8f4-166 selectable"/><path fill="#CAC9C9" d="M 676.531 701.834 L 677.207 706.901 C 683.322 716 682.213 728.895 677.841 738.522 L 675.828 739.497 C 676.319 728.825 676.078 717.565 676.03 706.84 L 676.531 701.834 z" class="svgShape colorcac9c9-167 selectable"/><path fill="#B0B4BF" d="M 675.828 739.497 L 677.841 738.522 C 686.008 738.883 709.822 738.577 715.88 740.189 L 715.092 742.193 C 708.445 742.235 681.586 742.879 676.764 741.78 L 675.828 739.497 z" class="svgShape colorb0b4bf-168 selectable"/><path fill="#0C1A2C" d="M 675.895 743.438 C 687.897 743.103 699.904 743.049 711.908 743.277 C 710.017 746.538 708.147 751.015 706.557 754.527 C 704.125 756.35 700.311 758.322 697.581 759.866 C 689.01 758.099 687.641 757.515 679.533 754.19 L 675.895 743.438 z" class="svgShape color0c1a2c-169 selectable"/><path fill="#3C6A94" d="M 747.434 649.275 C 747.309 643.471 747.535 637.414 747.653 631.591 C 750.664 661.124 750.53 690.231 711.168 688.867 C 696.416 688.054 687.815 672.197 680.731 660.906 C 676.102 653.528 686.186 631.487 689.505 623.854 C 691.988 618.143 695.057 615.636 700.457 613.016 C 700.155 621.085 700.029 628.062 700.193 636.128 L 700.178 645.958 L 700.639 648.33 C 705.059 649.982 708.31 648.454 712.657 649.183 L 730.977 649.107 C 736.094 648.641 742.221 649.082 747.434 649.275 z" class="svgShape color3c6a94-170 selectable"/><path fill="#0C1A2C" d="M 712.657 649.183 L 730.977 649.107 C 734.543 649.412 735.892 649.563 739.365 650.301 L 740.303 651.872 C 730.796 684.272 693.78 661.091 702.654 650.062 C 705.977 649.655 709.313 649.362 712.657 649.183 z" class="svgShape color0c1a2c-171 selectable"/><path fill="#2F5379" d="M 878.325 1109.66 C 872.339 1109.31 865.415 1109.56 860.889 1105.39 C 844.954 1090.72 846.78 1062.68 859.588 1047.37 L 860.878 1047.39 L 861.819 1051.01 L 862.823 1050.95 C 866.776 1046.82 892.447 1048.57 898.664 1049.4 L 899.708 1049.92 C 900.844 1061.86 900.485 1072.67 900.077 1084.66 C 897.447 1086.16 897.031 1086.78 894.153 1087.21 C 892.93 1100.15 889.987 1104.55 878.325 1109.66 z" class="svgShape color2f5379-172 selectable"/><path fill="#14324F" d="M 878.325 1109.66 C 872.339 1109.31 865.415 1109.56 860.889 1105.39 C 844.954 1090.72 846.78 1062.68 859.588 1047.37 L 860.878 1047.39 L 861.819 1051.01 C 861.462 1061.94 861.217 1072.87 861.086 1083.8 C 870.976 1083.5 891.015 1082.88 900.077 1084.66 C 897.447 1086.16 897.031 1086.78 894.153 1087.21 C 892.93 1100.15 889.987 1104.55 878.325 1109.66 z" class="svgShape color14324f-173 selectable"/><path fill="#0C1A2C" d="M 861.086 1083.8 C 870.976 1083.5 891.015 1082.88 900.077 1084.66 C 897.447 1086.16 897.031 1086.78 894.153 1087.21 C 891.047 1089.43 889.143 1092.33 886.201 1094.68 C 878.063 1101.17 859.203 1096.06 861.086 1083.8 z" class="svgShape color0c1a2c-174 selectable"/><path fill="#6091C3" d="M 862.823 1050.95 C 866.776 1046.82 892.447 1048.57 898.664 1049.4 C 896.376 1051.91 896.176 1052.09 891.612 1052.11 C 885.175 1052.14 868.386 1052.36 862.823 1050.95 z" class="svgShape color6091c3-175 selectable"/><path fill="#0C1A2C" d="M 792.443 1140.33 C 797.645 1139.56 823.898 1139.08 827.938 1141.65 L 828.293 1143.19 C 828.71 1156.01 831.162 1182.19 820.871 1191.6 C 808.782 1202.66 795.946 1195.89 787.396 1184.29 C 787.183 1172.9 786.58 1157.31 791.112 1146.68 C 790.995 1143.57 791.412 1143.38 792.443 1140.33 z" class="svgShape color0c1a2c-176 selectable"/><path fill="#01050E" d="M 792.443 1140.33 L 793.75 1141.9 L 794.106 1145.26 C 793.92 1155.11 793.853 1164.97 793.903 1174.82 C 801.151 1174.68 820.91 1173.58 826.769 1175.84 C 825.03 1177.83 824.826 1177.76 822.482 1179.07 C 820.38 1189.22 812.458 1193.54 802.734 1190.72 C 785.855 1185.82 792.23 1161.03 791.112 1146.68 C 790.995 1143.57 791.412 1143.38 792.443 1140.33 z" class="svgShape color01050e-177 selectable"/><path fill="#14324F" d="M 792.443 1140.33 C 797.645 1139.56 823.898 1139.08 827.938 1141.65 L 828.293 1143.19 L 827.151 1143.9 C 821.02 1147.27 805.84 1145.48 798.146 1145.04 L 794.106 1145.26 L 793.75 1141.9 L 792.443 1140.33 z" class="svgShape color14324f-178 selectable"/><path fill="#58718C" d="M 801.752 1141.95 C 807.856 1141.88 822.876 1140.74 827.151 1143.9 C 821.02 1147.27 805.84 1145.48 798.146 1145.04 C 799.787 1144.54 800.43 1144.28 801.996 1143.64 L 800.771 1142.73 L 801.752 1141.95 z" class="svgShape color58718c-179 selectable"/><path fill="#2F5379" d="M 793.75 1141.9 C 795.826 1141.81 800.083 1141.34 801.752 1141.95 L 800.771 1142.73 L 801.996 1143.64 C 800.43 1144.28 799.787 1144.54 798.146 1145.04 L 794.106 1145.26 L 793.75 1141.9 z" class="svgShape color2f5379-180 selectable"/><path fill="#D2D9E5" d="M 700.797 602.688 L 746.137 602.712 C 745.934 617.224 745.871 631.736 745.947 646.249 C 739.879 644.745 706.343 644.566 700.178 645.958 L 700.193 636.128 C 701.756 623.955 701.458 614.968 700.797 602.688 z" class="svgShape colord2d9e5-181 selectable"/><path fill="#14324F" d="M 834.994 662.508 L 837.274 661.482 C 842.006 668.686 836.845 693.895 832.022 701.194 L 832.271 700.381 C 824.202 709.288 822.124 706.886 811.654 704.552 C 807.07 704.362 805.939 703.34 803.145 699.698 C 798.849 694.097 801.546 661.817 807.341 659.319 L 808.235 661.957 C 816.697 662.741 826.402 662.506 834.994 662.508 z" class="svgShape color14324f-182 selectable"/><path fill="#58718C" d="M 808.235 661.957 C 816.697 662.741 826.402 662.506 834.994 662.508 C 834.946 668.256 834.297 681.729 836.079 686.322 C 829.206 685.388 815.429 685.808 807.998 685.825 C 808.783 681.874 808.293 666.789 808.235 661.957 z" class="svgShape color58718c-183 selectable"/><path fill="#0C1A2C" d="M 807.998 685.825 C 815.429 685.808 829.206 685.388 836.079 686.322 C 835.883 687.414 828.639 694.005 827.218 695.382 L 813.504 695.494 C 811.026 693.145 807.833 690.664 806.751 687.591 L 807.998 685.825 z" class="svgShape color0c1a2c-184 selectable"/><path fill="#D2D9E5" d="M 1425.22 639.794 C 1429.49 643.227 1434.75 641.327 1442.04 644.527 C 1449.29 648.648 1453.28 657.561 1456.34 665.046 C 1467 664.943 1492.12 662.819 1501.85 668.043 C 1503.41 668.883 1503.45 671.052 1506.76 671.957 C 1522.73 671.904 1540.48 672.478 1556.26 673.275 C 1582.91 674.621 1614.98 672.328 1634.94 693.258 C 1657.24 716.641 1657.75 738.693 1657.57 768.467 L 1657.11 874.153 C 1657.09 885.879 1656.66 899.392 1657.04 910.871 C 1657.99 939.703 1654.1 959.836 1633.19 981.12 C 1615.92 998.69 1596.2 995.923 1573.45 996.192 C 1564.56 996.26 1554.72 995.533 1545.84 994.61 C 1543.7 994.869 1543.61 994.979 1541.68 995.877 L 1541.56 995.15 L 1540.93 995.471 C 1541.08 996.823 1540.83 996.012 1542.08 997.964 L 1541.09 999.362 C 1533.95 1000.28 1489.51 1001.23 1483.06 999.524 C 1481.51 999.118 1480.33 998.119 1479.05 997.202 C 1474.9 994.219 1383.73 995.774 1372.77 996.363 C 1357.56 997.179 1342.11 1000.9 1326.88 999.598 C 1318.32 998.868 1308.56 995.346 1301.36 990.631 C 1272.4 979.417 1257.23 943.267 1256.88 914.021 C 1254.72 894.606 1259.17 777.159 1254.1 768.72 L 1253.27 769.39 L 1252.91 775.212 C 1251.02 767.391 1252.95 746.781 1253.8 738.048 C 1252.97 729.04 1259.2 726.134 1257.43 719.286 C 1255.3 716.327 1252.85 715.401 1249.49 714.052 C 1234.79 708.15 1239.73 726.661 1230.86 730.923 C 1233.28 721.869 1238.89 713.449 1243.75 705.417 C 1233.62 711.696 1208.46 711.387 1196.77 709.937 C 1183.1 708.24 1177.89 704.581 1169.92 694.495 C 1176.85 691.9 1186.32 689.828 1192.1 685.645 C 1196.52 684.411 1202.26 683.49 1206.86 682.616 L 1221.82 681.423 C 1220.86 677.204 1220.46 678.966 1222.18 675.8 C 1226.27 673.842 1230.44 674.445 1235.69 673.388 L 1236.59 673.201 C 1233.12 673.208 1231.82 673.338 1228.37 672.515 L 1229.06 671.154 C 1234.54 667.7 1242.12 664.312 1248.51 660.404 C 1249.32 659.724 1257.35 654.974 1258.77 654.108 C 1260.58 653.773 1262.76 653.25 1264.47 652.976 C 1280.22 650.456 1299.37 635.883 1315.79 642.295 L 1318.86 644.103 C 1331.31 641.244 1392.9 644.153 1410.62 644.182 C 1416.11 643.897 1419.57 642.687 1424.82 641.238 L 1425.22 639.794 z" class="svgShape colord2d9e5-185 selectable"/><path fill="url(#u)" d="M 1425.22 639.794 C 1429.49 643.227 1434.75 641.327 1442.04 644.527 C 1449.29 648.648 1453.28 657.561 1456.34 665.046 C 1467 664.943 1492.12 662.819 1501.85 668.043 C 1503.41 668.883 1503.45 671.052 1506.76 671.957 L 1410.72 669.806 C 1382.58 669.234 1354.65 667.718 1326.8 672.087 C 1325.8 672.363 1307.85 677.441 1308.18 677.424 C 1301.62 676.454 1294.03 681.109 1288.84 685.115 C 1270.09 699.598 1261.93 716.847 1253.8 738.048 C 1252.97 729.04 1259.2 726.134 1257.43 719.286 C 1255.3 716.327 1252.85 715.401 1249.49 714.052 C 1234.79 708.15 1239.73 726.661 1230.86 730.923 C 1233.28 721.869 1238.89 713.449 1243.75 705.417 C 1233.62 711.696 1208.46 711.387 1196.77 709.937 C 1183.1 708.24 1177.89 704.581 1169.92 694.495 C 1176.85 691.9 1186.32 689.828 1192.1 685.645 C 1196.52 684.411 1202.26 683.49 1206.86 682.616 L 1221.82 681.423 C 1220.86 677.204 1220.46 678.966 1222.18 675.8 C 1226.27 673.842 1230.44 674.445 1235.69 673.388 L 1236.59 673.201 C 1233.12 673.208 1231.82 673.338 1228.37 672.515 L 1229.06 671.154 C 1234.54 667.7 1242.12 664.312 1248.51 660.404 C 1249.32 659.724 1257.35 654.974 1258.77 654.108 C 1260.58 653.773 1262.76 653.25 1264.47 652.976 C 1280.22 650.456 1299.37 635.883 1315.79 642.295 L 1318.86 644.103 C 1331.31 641.244 1392.9 644.153 1410.62 644.182 C 1416.11 643.897 1419.57 642.687 1424.82 641.238 L 1425.22 639.794 z" class="svgShape colorgradient-186 selectable"/><path fill="#314359" d="M 1425.22 639.794 C 1429.49 643.227 1434.75 641.327 1442.04 644.527 C 1449.29 648.648 1453.28 657.561 1456.34 665.046 C 1431.72 665.236 1407.09 664.999 1382.48 664.336 C 1355.74 663.734 1325.89 662.305 1299.7 666.428 C 1287.08 668.414 1271.28 674.428 1258.7 678.478 L 1257.92 675.135 C 1257.6 672.97 1258.07 673.91 1256.42 672.352 C 1249.9 671.779 1243.16 672.648 1236.59 673.201 C 1233.12 673.208 1231.82 673.338 1228.37 672.515 L 1229.06 671.154 C 1234.54 667.7 1242.12 664.312 1248.51 660.404 C 1249.32 659.724 1257.35 654.974 1258.77 654.108 C 1260.58 653.773 1262.76 653.25 1264.47 652.976 C 1280.22 650.456 1299.37 635.883 1315.79 642.295 L 1318.86 644.103 C 1331.31 641.244 1392.9 644.153 1410.62 644.182 C 1416.11 643.897 1419.57 642.687 1424.82 641.238 L 1425.22 639.794 z" class="svgShape color314359-187 selectable"/><path fill="#6091C3" d="M 1258.77 654.108 C 1260.58 653.773 1262.76 653.25 1264.47 652.976 C 1280.22 650.456 1299.37 635.883 1315.79 642.295 C 1305.5 646.2 1297.5 649.269 1287.59 654.278 C 1281.58 657.315 1274.66 662.055 1269.23 664.689 C 1265.61 667.513 1260.2 670.969 1258.66 675.038 L 1257.92 675.135 C 1257.6 672.97 1258.07 673.91 1256.42 672.352 C 1249.9 671.779 1243.16 672.648 1236.59 673.201 C 1233.12 673.208 1231.82 673.338 1228.37 672.515 L 1229.06 671.154 C 1234.54 667.7 1242.12 664.312 1248.51 660.404 C 1249.32 659.724 1257.35 654.974 1258.77 654.108 z" class="svgShape color6091c3-188 selectable"/><path fill="#6586AD" d="M 1229.06 671.154 C 1233.12 671.914 1238.2 670.669 1242.03 669.233 L 1241.64 669.137 C 1254.21 663.736 1255.65 664.47 1269.23 664.689 C 1265.61 667.513 1260.2 670.969 1258.66 675.038 L 1257.92 675.135 C 1257.6 672.97 1258.07 673.91 1256.42 672.352 C 1249.9 671.779 1243.16 672.648 1236.59 673.201 C 1233.12 673.208 1231.82 673.338 1228.37 672.515 L 1229.06 671.154 z" class="svgShape color6586ad-189 selectable"/><path fill="#85ACD7" d="M 1315.79 642.295 L 1318.86 644.103 C 1304.56 650.254 1292.91 655.494 1279.27 662.989 C 1274.65 665.532 1261.72 673.695 1258.66 675.038 C 1260.2 670.969 1265.61 667.513 1269.23 664.689 C 1274.66 662.055 1281.58 657.315 1287.59 654.278 C 1297.5 649.269 1305.5 646.2 1315.79 642.295 z" class="svgShape color85acd7-190 selectable"/><path fill="#6586AD" d="M 1425.22 639.794 C 1429.49 643.227 1434.75 641.327 1442.04 644.527 C 1432.26 645.674 1420.43 645.042 1410.62 644.182 C 1416.11 643.897 1419.57 642.687 1424.82 641.238 L 1425.22 639.794 z" class="svgShape color6586ad-191 selectable"/><path fill="url(#v)" d="M 1273.05 681.263 C 1282.99 676.739 1321.16 665.507 1330.68 666.933 L 1330.87 667.815 C 1325.94 667.847 1315.11 670.462 1310.63 672.351 L 1311.04 674.34 C 1313.5 674.937 1321.11 671.783 1325.38 670.791 L 1326.8 672.087 C 1325.8 672.363 1307.85 677.441 1308.18 677.424 C 1301.62 676.454 1294.03 681.109 1288.84 685.115 C 1270.09 699.598 1261.93 716.847 1253.8 738.048 C 1252.97 729.04 1259.2 726.134 1257.43 719.286 C 1255.3 716.327 1252.85 715.401 1249.49 714.052 C 1234.79 708.15 1239.73 726.661 1230.86 730.923 C 1233.28 721.869 1238.89 713.449 1243.75 705.417 C 1247.53 701.108 1251.64 697.059 1255.67 692.972 C 1262.86 687.473 1265.07 685.729 1273.05 681.263 z" class="svgShape colorgradient-192 selectable"/><path fill="#6091C3" d="M 1255.67 692.972 C 1246.4 695.885 1217.86 699.55 1210.34 693.36 C 1217.65 690.042 1223.03 685.961 1230.72 688.044 C 1245.91 692.163 1257.83 681.019 1273.05 681.263 C 1265.07 685.729 1262.86 687.473 1255.67 692.972 z" class="svgShape color6091c3-193 selectable"/><path fill="#14324F" d="M 1236.59 673.201 C 1243.16 672.648 1249.9 671.779 1256.42 672.352 C 1258.07 673.91 1257.6 672.97 1257.92 675.135 L 1258.7 678.478 C 1248.75 680.42 1232.39 680.883 1221.82 681.423 C 1220.86 677.204 1220.46 678.966 1222.18 675.8 C 1226.27 673.842 1230.44 674.445 1235.69 673.388 L 1236.59 673.201 z" class="svgShape color14324f-194 selectable"/><path fill="url(#w)" d="M 1257.33 893.631 C 1259.27 900.691 1257.86 917.913 1260.31 921.676 C 1266.33 924.022 1278.61 922.45 1285.27 921.887 C 1292.33 916.451 1285.79 902.71 1287.95 896.412 C 1289.84 899.811 1289 911.389 1289.59 916.386 C 1293.17 946.982 1309.76 970.599 1336.95 983.883 C 1324.36 988.896 1313.49 988.627 1300.16 988.564 L 1303 990.193 L 1301.36 990.631 C 1272.4 979.417 1257.23 943.267 1256.88 914.021 C 1257.41 908.637 1257.26 899.326 1257.33 893.631 z" class="svgShape colorgradient-195 selectable"/><path fill="#58575A" d="M 1336.95 983.883 C 1362.82 991.239 1399.93 988.503 1427.49 988.647 C 1466.78 988.854 1506.82 988.785 1545.84 994.61 C 1543.7 994.869 1543.61 994.979 1541.68 995.877 L 1541.56 995.15 L 1540.93 995.471 C 1541.08 996.823 1540.83 996.012 1542.08 997.964 L 1541.09 999.362 C 1533.95 1000.28 1489.51 1001.23 1483.06 999.524 C 1481.51 999.118 1480.33 998.119 1479.05 997.202 C 1474.9 994.219 1383.73 995.774 1372.77 996.363 C 1357.56 997.179 1342.11 1000.9 1326.88 999.598 C 1318.32 998.868 1308.56 995.346 1301.36 990.631 L 1303 990.193 L 1300.16 988.564 C 1313.49 988.627 1324.36 988.896 1336.95 983.883 z" class="svgShape color58575a-196 selectable"/><path fill="#58718C" d="M 1253.8 738.048 C 1261.93 716.847 1270.09 699.598 1288.84 685.115 C 1294.03 681.109 1301.62 676.454 1308.18 677.424 C 1244.14 712.606 1258.74 771.3 1257.26 832.727 C 1256.79 852.345 1256.59 874.139 1257.33 893.631 C 1257.26 899.326 1257.41 908.637 1256.88 914.021 C 1254.72 894.606 1259.17 777.159 1254.1 768.72 L 1253.27 769.39 L 1252.91 775.212 C 1251.02 767.391 1252.95 746.781 1253.8 738.048 z" class="svgShape color58718c-197 selectable"/><path fill="url(#x)" d="M 1317.68 729.651 C 1342.32 686.432 1369.82 690.413 1413.86 691.063 L 1495.37 692.633 L 1560.02 693.546 C 1589 694.102 1606.74 690.247 1626.6 715.677 C 1641.9 733.557 1640.11 758.593 1640 780.549 L 1639.73 831.829 L 1639.74 887.291 C 1639.79 899.191 1638.86 912.189 1639.35 923.856 C 1640.2 943.737 1616.62 981.162 1595.32 979.688 C 1593.27 975.606 1597.53 976.365 1595.08 971.651 C 1590.78 970.428 1558.78 970.913 1552.1 970.924 L 1421.34 971.054 C 1400.08 970.97 1372.86 972.914 1352.69 968.498 C 1328.11 962.052 1310.62 933.825 1308.98 909.713 C 1307.46 887.55 1306.8 861.14 1307.81 839.343 C 1309.33 806.207 1302.08 759.123 1317.68 729.651 z" class="svgShape colorgradient-198 selectable"/><path fill="#01050E" d="M 1317.68 729.651 C 1342.32 686.432 1369.82 690.413 1413.86 691.063 L 1495.37 692.633 L 1560.02 693.546 C 1589 694.102 1606.74 690.247 1626.6 715.677 C 1623.42 715.182 1616.17 706.262 1608.09 702.484 C 1598.05 697.673 1594.59 697.915 1583.64 697.437 C 1550.63 696.089 1504.74 694.901 1472.13 695.958 C 1449.12 695.368 1378.97 691.819 1361.04 696.351 C 1350.82 698.951 1341.44 704.134 1333.8 711.402 C 1327.52 717.315 1322.84 724.113 1318.85 731.736 L 1317.68 729.651 z" class="svgShape color01050e-199 selectable"/><path fill="#85ACD7" d="M 1318.85 731.736 C 1322.84 724.113 1327.52 717.315 1333.8 711.402 C 1341.44 704.134 1350.82 698.951 1361.04 696.351 C 1378.97 691.819 1449.12 695.368 1472.13 695.958 C 1466.13 698.059 1457.17 697.865 1450.56 698.139 C 1433.18 698.007 1374.04 696.008 1360 699.964 C 1350.67 702.546 1342.15 707.478 1335.27 714.289 C 1321.71 727.492 1313 748.132 1313.71 766.859 C 1313.9 771.708 1314.41 781.847 1313.34 786.012 C 1307.55 773.174 1312.95 747.356 1317.83 734.386 C 1318.16 733.501 1318.5 732.617 1318.85 731.736 z" class="svgShape color85acd7-200 selectable"/><path fill="#6586AD" d="M 1472.13 695.958 C 1504.74 694.901 1550.63 696.089 1583.64 697.437 C 1594.59 697.915 1598.05 697.673 1608.09 702.484 C 1605.17 703.938 1583.32 700.782 1577.2 700.41 C 1534.78 700.088 1492.91 700.88 1450.56 698.139 C 1457.17 697.865 1466.13 698.059 1472.13 695.958 z" class="svgShape color6586ad-201 selectable"/><path fill="url(#y)" d="M 1111.78 775.348 C 1116.11 729.17 1146.98 695.383 1192.1 685.645 C 1186.32 689.828 1176.85 691.9 1169.92 694.495 C 1177.89 704.581 1183.1 708.24 1196.77 709.937 C 1208.46 711.387 1233.62 711.696 1243.75 705.417 C 1238.89 713.449 1233.28 721.869 1230.86 730.923 C 1222.16 755.478 1226.42 760.139 1225.41 782.633 C 1226.45 785.143 1227.88 789.198 1227.82 791.776 C 1227.48 805.795 1229.68 880.563 1227.1 888.689 C 1216.19 901.039 1221.1 901.417 1201.8 902.061 C 1200.25 900.45 1190.96 890.403 1190.43 889.494 C 1187.13 883.923 1187.92 840.304 1188.78 835.529 C 1188.88 835.239 1188.99 834.949 1189.09 834.659 C 1195.44 828.089 1194.32 822.88 1194.16 813.734 C 1194.09 804.243 1193.23 797.129 1192.39 787.709 L 1191.19 787.097 L 1192.18 787.092 L 1187.38 788.541 C 1185.11 787.536 1184.58 787.107 1182.56 785.651 L 1181.37 786.382 C 1181.43 786.403 1163.64 780.14 1165.25 781.291 C 1152.94 772.467 1137.31 763.061 1126.32 752.57 C 1120.33 746.854 1125.75 741.109 1126.78 734.489 C 1117.32 743.481 1115.06 764.87 1112.55 776.706 L 1111.78 775.348 z" class="svgShape colorgradient-202 selectable"/><path fill="#0C1A2C" d="M 1195.98 876.164 C 1198 856.866 1195.1 833.167 1195.9 813.544 C 1196.29 805.391 1194.32 795.208 1195.83 787.246 C 1199.49 767.951 1214.82 772.018 1225.41 782.633 C 1226.45 785.143 1227.88 789.198 1227.82 791.776 C 1227.48 805.795 1229.68 880.563 1227.1 888.689 C 1224.21 889.692 1220.16 892.469 1218.38 894.883 C 1208.76 897.906 1204.79 892.583 1200.51 884.697 C 1199.03 880.371 1198.77 879.77 1195.98 876.164 z" class="svgShape color0c1a2c-203 selectable"/><path fill="#26496A" d="M 1194.16 813.734 C 1195.29 826.374 1194.08 868.77 1195.98 876.164 C 1198.77 879.77 1199.03 880.371 1200.51 884.697 C 1204.79 892.583 1208.76 897.906 1218.38 894.883 C 1220.16 892.469 1224.21 889.692 1227.1 888.689 C 1216.19 901.039 1221.1 901.417 1201.8 902.061 C 1200.25 900.45 1190.96 890.403 1190.43 889.494 C 1187.13 883.923 1187.92 840.304 1188.78 835.529 C 1188.88 835.239 1188.99 834.949 1189.09 834.659 C 1195.44 828.089 1194.32 822.88 1194.16 813.734 z" class="svgShape color26496a-204 selectable"/><path fill="#58718C" d="M 1201.8 902.061 C 1200.25 900.45 1190.96 890.403 1190.43 889.494 C 1187.13 883.923 1187.92 840.304 1188.78 835.529 C 1189.11 846.738 1187.58 879.481 1190.82 887.097 L 1191.61 887.187 C 1191.61 883.47 1190.99 883.575 1192.74 881.037 C 1196.32 881.272 1194.86 880.851 1198.39 884.401 C 1201.66 894.583 1206.22 908.464 1219.63 896.676 C 1218.78 894.982 1219.37 895.419 1218.38 894.883 C 1220.16 892.469 1224.21 889.692 1227.1 888.689 C 1216.19 901.039 1221.1 901.417 1201.8 902.061 z" class="svgShape color58718c-205 selectable"/><path fill="#D2D9E5" d="M 347.777 697.61 C 364.354 698.529 384.093 697.911 401.047 697.949 C 400.931 716.633 400.937 735.318 401.067 754.002 C 382.022 753.681 362.972 753.782 343.931 754.306 C 344.125 745.327 344.082 734.546 344.88 725.742 C 344.451 719.702 342.698 703.027 345.086 698.349 L 347.777 697.61 z" class="svgShape colord2d9e5-206 selectable"/><path fill="#D2D9E5" d="M344.88 725.742C344.451 719.702 342.698 703.027 345.086 698.349L347.777 697.61C348.434 706.589 349.585 717.093 346.017 725.423L344.88 725.742zM303.005 806.189C320.774 805.838 339.215 806.032 357.038 805.975L357.129 858.26C339.825 857.494 320.439 857.961 303.159 858.513L303.005 806.189zM566.905 1061.37C567.059 1057.84 566.486 1056.89 568.147 1054.41 579.543 1053.25 604.52 1054.14 616.923 1054.24 616.887 1067.44 616.287 1087.54 617.374 1100.21L616.582 1102.66C612.864 1104.07 573.225 1104.28 567.69 1103.34 566.429 1101.46 566.606 1102.35 566.548 1100.87 567.248 1087.68 566.998 1074.57 566.905 1061.37z" class="svgShape colord2d9e5-207 selectable"/><path fill="#B0B4BF" d="M 569.723 1100.22 C 583.303 1099.46 604.412 1097.81 617.374 1100.21 L 616.582 1102.66 C 612.864 1104.07 573.225 1104.28 567.69 1103.34 C 566.429 1101.46 566.606 1102.35 566.548 1100.87 L 569.723 1100.22 z" class="svgShape colorb0b4bf-208 selectable"/><path fill="#B0B4BF" d="M 566.905 1061.37 C 573.665 1072.74 572.619 1087.67 569.723 1100.22 L 566.548 1100.87 C 567.248 1087.68 566.998 1074.57 566.905 1061.37 z" class="svgShape colorb0b4bf-209 selectable"/><path fill="#D2D9E5" d="M 468.851 640.197 L 469.661 638.377 C 476.202 637.072 510.028 637.681 517.988 637.7 C 517.926 649.761 517.297 671.796 518.468 682.884 L 517.778 685.856 C 513.651 687.761 471.777 688.082 468.563 685.628 L 468.68 683.04 C 469.416 668.942 469.078 654.314 468.851 640.197 z" class="svgShape colord2d9e5-210 selectable"/><path fill="#B0B4BF" d="M 474.857 681.913 C 489.243 682.411 504.389 681.247 518.468 682.884 L 517.778 685.856 C 513.651 687.761 471.777 688.082 468.563 685.628 L 468.68 683.04 L 474.857 681.913 z" class="svgShape colorb0b4bf-211 selectable"/><path fill="#CAC9C9" d="M 468.851 640.197 C 471.503 641.575 473.356 641.921 474.142 645.395 C 477.031 658.165 472.739 668.384 474.857 681.913 L 468.68 683.04 C 469.416 668.942 469.078 654.314 468.851 640.197 z" class="svgShape colorcac9c9-212 selectable"/><path fill="#2F5379" d="M 275.708 712.773 C 279.366 710.557 311.289 709.613 313.364 712.859 C 312.752 719.861 312.312 728.369 313.036 735.376 C 315.229 738.524 313.848 738.9 314.211 741.46 C 316.909 760.361 310.396 771.629 290.077 771.759 C 286.377 771.783 278.8 769.954 276.412 767.033 C 271.916 761.535 272.333 738.692 274.409 732.833 L 275.044 739.054 C 276.255 732.253 276.114 719.783 275.708 712.773 z" class="svgShape color2f5379-213 selectable"/><path fill="#01050E" d="M 313.036 735.376 C 315.229 738.524 313.848 738.9 314.211 741.46 C 316.909 760.361 310.396 771.629 290.077 771.759 C 286.377 771.783 278.8 769.954 276.412 767.033 C 271.916 761.535 272.333 738.692 274.409 732.833 L 275.044 739.054 C 274.856 742.334 274.77 742.284 275.539 745.439 C 279.237 746.225 306.373 745.488 312.846 745.612 L 313.036 735.376 z" class="svgShape color01050e-214 selectable"/><path fill="#85ACD7" d="M 275.708 712.773 C 279.366 710.557 311.289 709.613 313.364 712.859 C 307.405 715.618 280.756 716.859 275.708 712.773 z" class="svgShape color85acd7-215 selectable"/><path fill="#2F5379" d="M 537.928 894.988 L 584.923 895.013 L 584.894 940.865 C 569.276 940.69 553.656 941.011 538.058 941.825 C 538.571 926.246 538.179 910.578 537.928 894.988 z" class="svgShape color2f5379-216 selectable"/><path fill="#6586AD" d="M 537.321 896.378 C 543.926 895.63 577.033 895.513 583.302 896.532 L 584.581 898.569 C 575.495 900.763 553.423 900.04 543.401 899.964 C 539.478 899.934 539.252 898.793 537.321 896.378 z" class="svgShape color6586ad-217 selectable"/><path fill="#D2D9E5" d="M667.089 1096.98C681.27 1096.66 696.541 1096.97 710.805 1097.01 710.858 1111.8 710.831 1126.59 710.726 1141.38 696.612 1141.01 681.497 1141.55 667.296 1141.82 667.471 1126.88 667.402 1111.93 667.089 1096.98zM380.382 956.458C383.522 956.348 383.401 956.338 386.432 957.171 388.058 961.022 387.173 991.904 387.099 997.778 376.13 997.308 366.606 997.526 355.666 997.802 351.647 997.988 350.417 998.261 346.621 997.247 345.459 993.275 345.972 962.872 345.996 956.938L380.382 956.458z" class="svgShape colord2d9e5-218 selectable"/><path fill="#2F5379" d="M 477.977 982.08 C 478.371 979.607 477.791 980.594 479.6 979.055 C 485.21 978.404 514.41 976.696 518.449 979.405 C 517.33 989.115 517.927 1006.56 517.942 1016.89 C 503.456 1016.89 492.296 1017.08 477.87 1017.95 C 477.743 1010.37 476.961 988.672 477.977 982.08 z" class="svgShape color2f5379-219 selectable"/><path fill="#6091C3" d="M 477.977 982.08 C 478.371 979.607 477.791 980.594 479.6 979.055 C 485.21 978.404 514.41 976.696 518.449 979.405 C 516.238 982.241 516.611 982.728 512.109 983.032 C 506.361 983.42 482.664 984.016 477.977 982.08 z" class="svgShape color6091c3-220 selectable"/><path fill="#2F5379" d="M 418.988 633.539 C 424.903 632.972 456.419 631.223 458.82 634.885 C 459.078 645.784 458.358 660.009 458.267 671.335 C 445.602 671.777 432.197 671.105 419.037 671.484 C 419.324 660.393 419.965 644.272 418.988 633.539 z" class="svgShape color2f5379-221 selectable"/><path fill="#6586AD" d="M 418.988 633.539 C 424.903 632.972 456.419 631.223 458.82 634.885 C 456.307 639.062 424.072 640.296 418.988 633.539 z" class="svgShape color6586ad-222 selectable"/><path fill="#314359" d="M 414.766 1046.6 C 419.592 1043.53 445.361 1044.89 452.501 1045.25 C 454.307 1046.49 453.814 1045.83 454.434 1046.82 C 453.426 1054.32 453.922 1073.49 453.977 1081.91 C 441.067 1081.83 428.156 1081.94 415.249 1082.25 C 415.289 1070.49 415.557 1058.3 414.766 1046.6 z" class="svgShape color314359-223 selectable"/><path fill="#6586AD" d="M 414.766 1046.6 C 419.592 1043.53 445.361 1044.89 452.501 1045.25 C 454.307 1046.49 453.814 1045.83 454.434 1046.82 C 447.425 1050.68 422.07 1050.24 414.766 1046.6 z" class="svgShape color6586ad-224 selectable"/><path fill="#D2D9E5" d="M 570.019 821.466 C 582.396 821.303 594.775 821.267 607.153 821.357 C 606.795 833.453 607.426 846.002 606.679 857.992 C 593.26 857.527 583.659 857.38 570.241 857.912 C 570.294 845.763 570.22 833.613 570.019 821.466 z" class="svgShape colord2d9e5-225 selectable"/><path fill="#2F5379" d="M 522.24 676.163 L 523.611 673.758 C 529.457 672.704 553.463 671.692 557.866 674.205 L 558.736 676.254 C 557.76 681.768 557.992 701.974 557.953 708.829 C 546.277 708.527 534.072 708.642 522.344 708.604 C 522.761 698.313 523.556 686.298 522.24 676.163 z" class="svgShape color2f5379-226 selectable"/><path fill="#6091C3" d="M 522.24 676.163 L 523.611 673.758 C 529.457 672.704 553.463 671.692 557.866 674.205 L 558.736 676.254 C 552.599 677.913 528.852 677.519 522.24 676.163 z" class="svgShape color6091c3-227 selectable"/><path fill="#D2D9E5" d="M 571.944 1153.51 L 606.093 1153.69 L 606.14 1188.12 C 594.932 1187.8 583.26 1187.99 572.014 1188.01 C 572.083 1176.51 572.059 1165.01 571.944 1153.51 z" class="svgShape colord2d9e5-228 selectable"/><path fill="#0C1A2C" d="M 1480.5 1045.75 C 1477.57 1039.79 1474.18 1040.46 1468.24 1040.71 C 1458.66 1041.11 1402.42 1042.9 1400.12 1040.62 C 1408.13 1037.33 1467.55 1041.19 1475.45 1038.18 C 1473.08 1033.35 1459.99 1037.93 1452.3 1034.84 L 1452.61 1033.91 C 1456.61 1033.53 1468.78 1032.71 1471.76 1031.39 C 1470.17 1026.13 1462.89 1021.57 1462.72 1018.51 C 1475.35 1019.8 1509.66 1079.56 1507.76 1094.23 C 1507.57 1095.65 1506.95 1098.54 1506.53 1100.04 L 1505.15 1100.42 C 1505.84 1093.26 1506.48 1089 1504.27 1082.16 C 1502.49 1086.03 1502.43 1086.83 1499.14 1089.25 L 1497.93 1090.9 C 1494.37 1088.64 1496.75 1086.16 1493.1 1083.5 C 1489.98 1079.13 1488.83 1075.45 1486.86 1070.49 C 1485.47 1066.22 1484.55 1062.91 1482.47 1058.9 C 1478.13 1054.97 1477.25 1050.54 1480.5 1045.75 z" class="svgShape color0c1a2c-229 selectable"/><path fill="url(#z)" d="M 1482.47 1058.9 C 1478.13 1054.97 1477.25 1050.54 1480.5 1045.75 C 1483.02 1049.93 1482.75 1049.94 1486.12 1052.84 C 1492.76 1058.55 1501.32 1073.99 1504.27 1082.16 C 1502.49 1086.03 1502.43 1086.83 1499.14 1089.25 L 1497.93 1090.9 C 1494.37 1088.64 1496.75 1086.16 1493.1 1083.5 C 1489.98 1079.13 1488.83 1075.45 1486.86 1070.49 C 1485.47 1066.22 1484.55 1062.91 1482.47 1058.9 z" class="svgShape colorgradient-230 selectable"/><path fill="#58718C" d="M 1482.47 1058.9 C 1482.46 1056.27 1482.15 1055.05 1481.43 1052.52 L 1481.74 1051.72 C 1485.11 1054.96 1498.66 1084.07 1499.14 1089.25 L 1497.93 1090.9 C 1494.37 1088.64 1496.75 1086.16 1493.1 1083.5 C 1489.98 1079.13 1488.83 1075.45 1486.86 1070.49 C 1485.47 1066.22 1484.55 1062.91 1482.47 1058.9 z" class="svgShape color58718c-231 selectable"/><path fill="#2F5379" d="M 661.957 1200.61 C 666.049 1197.77 684.584 1198.77 690.91 1198.81 C 690.631 1208.12 690.63 1217.44 690.908 1226.75 C 681.347 1226.76 671.668 1226.68 662.119 1226.81 L 662.288 1202.18 L 661.957 1200.61 z" class="svgShape color2f5379-232 selectable"/><path fill="#6091C3" d="M 661.957 1200.61 C 668.368 1199.6 680.195 1198.62 686.431 1200.01 L 687.895 1201.31 C 684.427 1204.39 674.21 1203.25 669.439 1202.99 C 667.04 1202.87 664.651 1202.6 662.288 1202.18 L 661.957 1200.61 z" class="svgShape color6091c3-233 selectable"/><path fill="#314359" d="M 1529.53 258.013 L 1527.87 255.792 C 1527.68 252.595 1528.92 251.519 1530.65 249.041 L 1529.33 245.435 L 1531.57 240.731 C 1529.63 235.32 1521.73 235.94 1523.01 229.469 L 1524.16 228.726 L 1523.33 229.024 C 1530.95 230.681 1529.85 238.505 1538.46 234.812 L 1540.76 236.457 C 1537.86 238.736 1536.29 239.554 1534.7 242.902 C 1536.9 246.642 1539.58 243.144 1544.77 246.793 C 1545.31 249.831 1545.26 248.288 1543.95 251.558 C 1540.99 253.391 1539.15 254.934 1536.42 257.127 L 1535.05 256.856 L 1533.56 252.795 L 1532.67 252.63 L 1529.53 258.013 z" class="svgShape color314359-234 selectable"/><path fill="#0C1A2C" d="M 1110.72 783.151 C 1120.2 782.005 1126.3 782.702 1135.82 783.707 C 1139.16 787.322 1143.17 791.331 1144.4 796.226 C 1143.79 798.567 1143.15 800.733 1142.81 803.134 L 1141.95 800.946 C 1141.2 795.345 1139.51 793.622 1135.04 790.288 L 1128.04 788.857 C 1122.18 787.58 1114.97 788.764 1107.7 787.445 L 1106.87 785.371 C 1109.54 784.525 1108.67 785.01 1110.72 783.151 z" class="svgShape color0c1a2c-235 selectable"/><path fill="#314359" d="M1642.77 232.882L1645.23 233.625C1645.23 237.52 1628.4 246.086 1622.91 251.895 1620.98 250.618 1621.06 250.723 1619.69 248.866 1621.88 242.916 1636.94 235.899 1642.77 232.882zM1553.51 210.388C1556.84 213.948 1563.35 221.098 1562.84 225.764 1560.12 228.166 1560.62 227.426 1556.39 228.12 1554.25 228.06 1553.13 228.987 1551 230.004L1549.9 229.376C1550.15 222.224 1554.48 219.441 1553.51 210.388zM1671.27 245.675C1672.6 246.668 1672.21 246.457 1673.12 248.003 1670.47 253.39 1657.85 257.165 1652.17 258.291L1650.91 256.079C1653.57 252.631 1664.3 250.561 1671.27 245.675zM1614.38 248.883L1616.38 249.84 1617.15 252.759C1614.49 258.638 1608.6 260.599 1602.53 259.239 1601.77 257.269 1601.03 255.294 1600.3 253.313 1607.78 256.506 1609.16 253.899 1614.38 248.883zM1538.91 208.293C1541.41 209.454 1549.56 211.673 1549.89 211.937L1549.18 217.947 1548.54 219.941 1546.7 220.099C1542.08 216.511 1538.75 214.184 1538.91 208.293zM1507.69 226.51C1510.86 226.43 1513.81 225.93 1516.47 227.397 1516.01 230.156 1515.49 229.729 1512.72 232.094 1509.59 233.776 1508.24 235.042 1505.27 233.011 1505.2 229.486 1505.59 230.107 1507.69 226.51zM1524.14 220.705C1527.52 221.298 1526.33 220.432 1528.28 222.588 1526.71 225.54 1525.5 225.731 1522.46 227.785 1521.28 227.903 1520.81 227.656 1519.57 227.396L1519.17 225.933C1520.79 222.45 1520.96 222.634 1524.14 220.705zM1540.76 236.457L1541.48 235.593C1544.48 237.641 1547.79 241.612 1550.39 244.396 1547 245.661 1548.76 245.574 1544.94 244.029 1541.99 240.74 1541.81 240.635 1540.76 236.457zM1707.44 223.316L1711.07 224.001 1711.93 225.45C1709.58 227.635 1705.02 228.883 1701.84 230.029L1699.84 230.166 1699.32 229.214C1703.06 227.111 1704.42 226.318 1707.44 223.316zM1629.67 272.915C1633.76 272.619 1635.21 272.43 1638.22 274.564L1637.7 276.8C1634.51 278.081 1634.76 278.108 1631.36 277.805 1629.01 275.251 1629.7 276.768 1629.67 272.915z" class="svgShape color314359-236 selectable"/></svg></g></svg>